<svg width="200" height="50" viewBox="0 0 200 50" fill="none" xmlns="http://www.w3.org/2000/svg">
<path d="M118.88 12.1531V18.0258H111.28V30.1792C111.28 33.2787 112.8 34.5022 115.92 34.5022C116.88 34.5022 118.16 34.2575 119.12 33.6865V39.5593C118 40.4565 115.76 40.9459 113.76 40.9459C107.36 40.9459 104.08 37.4386 104.08 31.7289V18.1074H100.32V16.5576L109.12 6.11719H111.28V12.3162H118.88V12.1531Z" fill="white"/>
<path d="M96.7206 19.7386C94.6406 18.1889 92.0006 17.6179 90.0006 17.6179C87.1206 17.6179 85.7606 18.5151 85.7606 20.0649C85.7606 21.2068 86.2406 21.7778 88.4006 22.5935L92.8006 24.4695C96.8806 26.1008 99.0406 28.1399 99.0406 32.2998C99.0406 38.0094 94.6406 41.4352 87.9206 41.4352C84.8006 41.4352 81.1206 40.6196 79.2806 38.9067V32.3814C82.4006 34.6652 85.4406 35.3178 87.9206 35.3178C90.6406 35.3178 92.0006 34.4205 92.0006 32.7892C92.0006 31.5657 91.2806 31.0763 89.2006 30.2607L84.6406 28.4662C80.9606 26.998 78.6406 24.8773 78.6406 20.5543C78.6406 15.2525 83.0406 11.582 90.4806 11.582C93.3606 11.582 96.4006 12.3161 98.1606 13.7027L96.7206 19.7386Z" fill="white"/>
<path d="M151.279 26.4264C151.279 34.9908 145.759 41.5977 136.319 41.5977C126.879 41.5977 121.359 34.9908 121.359 26.4264C121.359 17.9435 126.879 11.3367 136.319 11.3367C145.759 11.2551 151.279 17.9435 151.279 26.4264ZM128.559 26.4264C128.559 31.1572 131.199 35.2355 136.319 35.2355C141.439 35.2355 144.079 31.0757 144.079 26.4264C144.079 21.7771 141.439 17.6173 136.319 17.6173C131.199 17.6173 128.559 21.6956 128.559 26.4264Z" fill="white"/>
<path d="M167.759 19.4133C164.399 19.4133 162.079 21.2078 162.079 26.5096V40.6205H154.879V12.1539H161.679L161.759 18.3529C162.959 14.6009 165.279 11.7461 169.279 11.7461C170.559 11.7461 171.839 12.2355 172.639 13.0512L171.279 20.3105C170.239 19.7396 168.959 19.4133 167.759 19.4133Z" fill="white"/>
<path d="M189.839 41.3547C178.879 41.3547 173.359 34.9925 173.359 26.2649C173.359 18.2715 178.479 11.4199 187.519 11.4199C195.359 11.4199 199.999 17.9452 199.999 25.6124C199.999 26.6728 199.919 28.0594 199.759 28.9566H180.799C181.679 32.9534 184.879 35.1556 190.639 35.1556C193.759 35.1556 196.879 34.1769 198.719 32.8718V39.2339C196.719 40.6206 192.879 41.3547 189.839 41.3547ZM187.199 17.5374C183.599 17.5374 181.279 19.9844 180.639 23.8995H192.959C192.559 20.0659 190.479 17.5374 187.199 17.5374Z" fill="white"/>
<path d="M23.12 40.62H16.4L16.32 35.8892C15.04 39.1518 12.64 41.1094 8.96 41.1094C3.44 41.1094 0 37.1942 0 32.6265C0 24.7962 6.8 23.8174 12.4 23.328L16.08 23.0017V22.3492C16.08 19.4944 13.36 17.9446 9.44 17.9446C6.48 17.9446 3.68 18.7603 0.96 20.2285L2.64 13.5401C5.36 12.1535 8.32 11.6641 11.04 11.6641C17.52 11.6641 23.12 14.7636 23.12 22.1045V40.62ZM11.28 35.3182C13.84 35.3182 16.08 33.1975 16.08 29.6902V27.7326L12.16 28.1404C8.8 28.4667 7.2 29.4455 7.2 31.8109C7.2 33.7685 8.4 35.3182 11.28 35.3182Z" fill="white"/>
<path d="M43.5191 11.582C51.3591 11.582 56.3191 18.0258 56.3191 26.4271C56.3191 34.8284 51.3591 41.2721 43.4391 41.2721C39.2791 41.2721 35.9991 39.2329 34.1591 36.0518V49.9996H27.0391V12.153H33.9991L34.0791 17.047C35.8391 13.7843 39.1191 11.582 43.5191 11.582ZM49.0391 26.4271C49.0391 21.6962 46.3991 17.8626 41.5191 17.8626C36.6391 17.8626 34.0791 21.7778 34.0791 26.4271C34.0791 31.1579 36.6391 34.9915 41.5191 34.9915C46.4791 34.9915 49.0391 31.1579 49.0391 26.4271Z" fill="white"/>
<path d="M68.7216 30.1791V23.5723H61.6016V31.8104C61.6016 37.5201 64.8016 41.0274 71.2816 41.0274C73.2016 41.0274 75.5216 40.538 76.6416 39.6408V33.768C75.6816 34.2574 74.4016 34.5837 73.4416 34.5837C70.2416 34.5837 68.7216 33.2786 68.7216 30.1791Z" fill="white"/>
<path d="M74.0803 5.79119H68.8003V0H61.6003V5.79119H56.3203V12.1533H61.6003V18.1077H68.8003V12.1533H74.0803V5.79119Z" fill="white"/>
</svg>
