<svg xmlns="http://www.w3.org/2000/svg" xmlns:xlink="http://www.w3.org/1999/xlink" width="43" height="37" viewBox="0 0 43 37"><defs><path id="f19ca" d="M1525.74 113.737c0 1.432.003 2.865-.001 4.297-.002.769-.466 1.3-1.13 1.308-.69.008-1.168-.527-1.168-1.316-.001-2.91-.002-5.82.002-8.73 0-.562.335-1.004.842-1.151.479-.14 1.045.06 1.283.518.118.228.164.515.166.777.016 1.432.008 2.864.008 4.297h-.002zm-15.42-.002c0-1.463-.002-2.925.001-4.388.002-.725.48-1.236 1.148-1.24.67-.002 1.148.496 1.15 1.237.005 2.91.004 5.82-.002 8.73-.002.69-.389 1.162-.992 1.26-.496.08-1.04-.23-1.223-.728a1.724 1.724 0 0 1-.079-.574c-.006-1.432-.003-2.865-.003-4.297zm8.883.018c0 1.445.005 2.89-.004 4.336-.004.62-.343 1.062-.889 1.213-.464.13-.999-.064-1.244-.506a1.578 1.578 0 0 1-.192-.726c-.013-2.89-.011-5.782-.006-8.672.001-.772.47-1.282 1.153-1.29.7-.008 1.177.512 1.18 1.309.006 1.445.002 2.89.002 4.336zm13.12-.042c0 1.46.009 2.921-.003 4.381-.008.983-.96 1.561-1.754 1.08-.447-.272-.582-.697-.581-1.195.004-2.47.001-4.939.001-7.408 0-.407-.01-.814.003-1.22.022-.755.516-1.258 1.203-1.24.66.016 1.128.53 1.13 1.265.005 1.446.002 2.891.002 4.337zm-29.605-9.253c1.362 5.124 2.728 10.25 4.088 15.378.422 1.59 1.688 2.577 3.33 2.577h22.303c1.681 0 2.949-.96 3.379-2.575 1.307-4.913 2.61-9.826 3.914-14.74.177-.667.175-.668.86-.693a2.079 2.079 0 0 0 2.032-2.157c-.025-1.122-.932-1.996-2.082-1.998-1.418-.003-2.835 0-4.253 0h-.426c.03.372.086.673.071.97-.088 1.81-1.271 3.271-2.982 3.707-1.687.43-3.443-.319-4.368-1.878a90.737 90.737 0 0 1-1.413-2.47c-.132-.238-.277-.337-.56-.336-3.544.01-7.088.01-10.631 0-.266 0-.4.095-.524.315-.477.854-.965 1.703-1.463 2.544-.793 1.337-2.407 2.142-3.818 1.92-1.762-.279-3.024-1.365-3.385-3.007-.123-.558-.082-1.153-.117-1.765-1.516 0-3.067-.003-4.617 0-1.02.003-1.89.74-2.03 1.707-.155 1.066.412 2.044 1.409 2.334.397.116.829.112 1.283.167z"/><path id="f19cb" d="M1510.603 103.163c-1.645-.004-2.603-1.71-1.768-3.164 1.87-3.261 3.749-6.518 5.624-9.776.6-1.043 1.196-2.089 1.807-3.126.627-1.066 1.852-1.4 2.879-.803 1 .583 1.33 1.82.73 2.867-2.471 4.307-4.952 8.608-7.43 12.91-.408.71-1.013 1.092-1.842 1.092z"/><path id="f19cc" d="M1532.03 103.196c-.898-.027-1.503-.47-1.935-1.222-1.719-3.002-3.447-5.998-5.172-8.996-.742-1.291-1.499-2.574-2.225-3.873-.495-.886-.269-2.017.483-2.619.802-.642 1.94-.636 2.697.033.177.156.336.35.454.555a4959.1 4959.1 0 0 1 7.444 12.948c.663 1.159.2 2.517-1.005 3.004-.232.093-.493.115-.74.17z"/></defs><g><g transform="translate(-1500 -86)"><use fill="#4b4b4b" xlink:href="#f19ca"/></g><g transform="translate(-1500 -86)"><use fill="#4b4b4b" xlink:href="#f19cb"/></g><g transform="translate(-1500 -86)"><use fill="#4b4b4b" xlink:href="#f19cc"/></g></g></svg>