<svg width="235" height="235" viewBox="0 0 235 235" fill="none" xmlns="http://www.w3.org/2000/svg">
<ellipse cx="126" cy="180" rx="58" ry="8" fill="url(#paint0_radial_64_386)"/>
<path d="M66.113 103.337L73.0787 100.009L78.2838 105.71L85.2495 102.382L90.4546 108.083L97.4204 104.755L102.625 110.456L109.591 107.128L114.796 112.829L121.762 109.501L126.967 115.202L133.933 111.874L138.034 116.443L141.594 98.1871C143.431 88.7646 152.089 82.5057 161.487 83.4213L161.506 83.3231L87.6962 68.932L87.677 69.0301C78.3958 68.0356 69.6207 74.3734 67.7836 83.796L64.3197 101.561L66.113 103.337Z" fill="#768925"/>
<path d="M88.7016 70.045C79.3031 69.1294 70.6645 75.2901 68.8847 84.4182L65.3635 102.478L66.1129 103.337L73.0786 100.009L78.2837 105.71L85.2494 102.382L90.4546 108.083L97.4203 104.755L102.625 110.456L109.591 107.128L114.796 112.829L121.762 109.501L126.967 115.202L133.933 111.874L139.059 117.458L142.695 98.8094C144.475 89.6813 153.113 83.5206 162.493 84.5343L162.512 84.4361L88.7016 70.045Z" fill="#606D14"/>
<path d="M101.548 90.3792L89.1468 153.982L95.6817 150.773L100.887 156.474L107.852 153.146L113.058 158.847L120.023 155.519L125.228 161.22L132.194 157.892L137.399 163.593L144.365 160.265L149.57 165.966L156.536 162.638L161.741 168.339L162.758 167.824L175.063 104.713C176.901 95.2903 171.228 86.2375 162.174 83.5552L162.193 83.4571L88.6776 69.1233L88.6585 69.2215C97.6335 71.7865 103.385 80.9566 101.548 90.3792Z" fill="#96B72E"/>
<path d="M102.665 86.2161L175.003 100.32C174.885 96.2218 173.278 92.4445 170.831 89.3185L98.3953 75.1952C100.96 78.2423 102.449 82.0986 102.665 86.2161Z" fill="#B7DB21"/>
<path d="M140.55 101.448L104.038 94.3287L102.469 102.377L138.981 109.496L140.55 101.448Z" fill="#B7DB21"/>
<path d="M138.063 114.207L101.55 107.088L99.9808 115.137L136.493 122.256L138.063 114.207Z" fill="#B7DB21"/>
<path d="M135.556 127.065L99.0431 119.946L97.4738 127.995L133.986 135.114L135.556 127.065Z" fill="#B7DB21"/>
<path d="M169.309 107.055L151.249 103.534L149.68 111.582L167.74 115.103L169.309 107.055Z" fill="#B7DB21"/>
<path d="M166.821 119.815L148.761 116.293L147.192 124.342L165.252 127.863L166.821 119.815Z" fill="#B7DB21"/>
<path d="M164.314 132.673L146.254 129.151L144.685 137.2L162.745 140.721L164.314 132.673Z" fill="#B7DB21"/>
<path d="M162.803 144.604L126.683 137.561L124.253 150.027L160.372 157.069L162.803 144.604Z" fill="#EE715F"/>
<defs>
<radialGradient id="paint0_radial_64_386" cx="0" cy="0" r="1" gradientUnits="userSpaceOnUse" gradientTransform="translate(126 180) rotate(90) scale(8 58)">
<stop stop-color="#C4C4C4"/>
<stop offset="1" stop-color="#C4C4C4" stop-opacity="0"/>
</radialGradient>
</defs>
</svg>
