<svg width="200" height="200" viewBox="0 0 200 200" fill="none" xmlns="http://www.w3.org/2000/svg">
<path d="M62.6 100L91.7 47.6L156.7 71.3L115.5 108.3L62.6 100Z" fill="#96B72E"/>
<path d="M62.6 100L156.7 71.3C156.7 71.3 149.8 108.9 149 108.9C148.1 108.9 96 123.4 96 123.4L62.6 100Z" fill="#768925"/>
<path d="M150.9 105.4L137.5 48.3L133.4 54.3L126 52L121.6 58.4L114.2 56.1L109.8 62.5L102.4 60.2L98 66.6L90.6 64.3L86.2 70.7L78.8 68.4L74.4 74.8L67 72.5L66.4 73.4L79.7 130.2C83 139.2 154.1 114.4 150.9 105.4Z" fill="#EE715F"/>
<path d="M109.846 71.9585L73.6722 80.6372L75.5853 88.6109L111.759 79.9322L109.846 71.9585Z" fill="#F99F95"/>
<path d="M112.843 84.6709L76.6693 93.3496L78.5824 101.323L114.756 92.6446L112.843 84.6709Z" fill="#F99F95"/>
<path d="M137.612 64.5448L121.178 68.4876L123.091 76.4613L139.525 72.5185L137.612 64.5448Z" fill="#F99F95"/>
<path d="M140.609 77.2572L124.176 81.2L126.089 89.1737L142.522 85.2309L140.609 77.2572Z" fill="#F99F95"/>
<path d="M143.521 90.3403L127.088 94.283L129.001 102.257L145.434 98.314L143.521 90.3403Z" fill="#F99F95"/>
<path d="M115.937 97.36L79.7637 106.039L81.6767 114.012L117.85 105.334L115.937 97.36Z" fill="#F99F95"/>
<path d="M62.6 100L74.3 151.8L164.6 120L156.7 71.3L114.9 105.5L62.6 100Z" fill="#96B72E"/>
<path d="M62.6 100L114.9 105.5L74.3 151.8L62.6 100Z" fill="#B7DB21"/>
<path d="M156.7 71.3L164.6 120L114.9 105.5L156.7 71.3Z" fill="#B7DB21"/>
<path d="M54.4 104.5L16.4 120.4L56.1 108.5L54.4 104.5Z" fill="#B7DB21"/>
<path d="M58 124.9L20.1 140.8L59.7 128.9L58 124.9Z" fill="#B7DB21"/>
<path d="M62.9 145.3L24.9 161.2L64.6 149.3L62.9 145.3Z" fill="#B7DB21"/>
<ellipse cx="121" cy="170" rx="58" ry="8" fill="url(#paint0_radial_64_416)"/>
<defs>
<radialGradient id="paint0_radial_64_416" cx="0" cy="0" r="1" gradientUnits="userSpaceOnUse" gradientTransform="translate(121 170) rotate(90) scale(8 58)">
<stop stop-color="#C4C4C4"/>
<stop offset="1" stop-color="#C4C4C4" stop-opacity="0"/>
</radialGradient>
</defs>
</svg>
