<svg width="71" height="71" viewBox="0 0 71 71" fill="none" xmlns="http://www.w3.org/2000/svg">
<g clip-path="url(#clip0)">
<rect x="-71" y="-0.289322" width="100" height="100" transform="rotate(-45 -71 -0.289322)" fill="black"/>
<path d="M15.3879 44.8792L14.1407 46.1263L9.11504 41.1006L6.69955 43.5161L11.7253 48.5418L10.4823 49.7847L4.44979 43.7522L9.35535 38.8467L15.3879 44.8792ZM19.27 40.997L17.0949 38.8218L16.0839 39.8328L17.1694 43.0976L15.827 44.44L14.5426 40.5785C13.5787 40.8575 12.7362 40.6365 12.0153 39.9156C11.4242 39.3245 11.1604 38.674 11.2239 37.9642C11.2875 37.2543 11.6631 36.55 12.3509 35.8511L14.4846 33.7174L20.5171 39.7499L19.27 40.997ZM13.3494 38.7638C13.6864 39.1008 14.0123 39.2638 14.3272 39.2527C14.6448 39.2389 14.968 39.0676 15.2967 38.7389L16.1543 37.8813L14.2443 35.9713L13.3867 36.8289C12.7293 37.4863 12.7169 38.1313 13.3494 38.7638ZM20.9687 29.2469L19.1209 31.0947L24.1466 36.1204L22.9036 37.3634L17.8779 32.3377L16.0549 34.1607L15.0481 33.1539L19.9619 28.2401L20.9687 29.2469ZM31.6168 28.6502L30.3738 29.8932L27.7885 27.3078L25.3647 29.7316L27.95 32.317L26.7071 33.5599L20.6746 27.5274L21.9175 26.2845L24.362 28.729L26.7858 26.3052L24.3413 23.8607L25.5843 22.6177L31.6168 28.6502ZM30.291 17.9111L31.5381 16.664L37.5706 22.6965L36.3235 23.9436L32.317 19.9371L33.908 26.3591L32.665 27.602L26.6325 21.5695L27.8755 20.3266L31.8902 24.3413L30.291 17.9111ZM32.5614 15.6406L33.8044 14.3976L38.8384 19.4316L41.2539 17.0161L36.2199 11.9821L37.467 10.735L42.501 15.769L43.3255 14.9445L45.6954 17.4802L44.5353 18.6403L43.081 17.186L38.5939 21.6731L32.5614 15.6406ZM47.3237 10.4574L45.1443 12.6368L45.973 14.294L44.6513 15.6157L40.8644 7.33761L42.0162 6.1858L50.3068 9.96026L48.9851 11.2819L47.3237 10.4574ZM44.4731 11.2944L45.9813 9.78624L42.965 8.2864L44.4731 11.2944Z" fill="white"/>
</g>
<defs>
<clipPath id="clip0">
<path d="M0 0H70.71V70.71H0V0Z" fill="white"/>
</clipPath>
</defs>
</svg>
