<svg width="43" height="43" viewBox="0 0 43 43" fill="none" xmlns="http://www.w3.org/2000/svg">
<circle cx="21.5" cy="21.5" r="21.5" fill="#C10010"/>
<path d="M28.666 17.8327H27.6585C27.7807 17.4275 27.8395 17.0058 27.8327 16.5827C27.8327 14.9743 26.5243 13.666 24.916 13.666C23.5643 13.666 22.6618 14.901 22.0793 16.2368C21.5052 14.9743 20.5568 13.666 19.0827 13.666C17.4743 13.666 16.166 14.9743 16.166 16.5827C16.166 17.0793 16.2318 17.4902 16.3402 17.8327H15.3327C14.4135 17.8327 13.666 18.5802 13.666 19.4993V21.166C13.666 22.0852 14.4135 22.8327 15.3327 22.8327V28.666C15.3327 29.5852 16.0802 30.3327 16.9993 30.3327H26.9993C27.9185 30.3327 28.666 29.5852 28.666 28.666V22.8327C29.5852 22.8327 30.3327 22.0852 30.3327 21.166V19.4993C30.3327 18.5802 29.5852 17.8327 28.666 17.8327ZM24.916 15.3327C25.6052 15.3327 26.166 15.8935 26.166 16.5827C26.166 17.8327 25.6443 17.8327 25.3327 17.8327H23.2677C23.6935 16.5193 24.3118 15.3327 24.916 15.3327ZM17.8327 16.5827C17.8327 15.8935 18.3935 15.3327 19.0827 15.3327C19.8227 15.3327 20.511 16.6035 20.9143 17.8327H18.666C18.3543 17.8327 17.8327 17.8327 17.8327 16.5827ZM15.3327 19.4993H21.166V21.166H15.3327V19.4993ZM16.9993 28.666V22.8327H21.166V28.666H16.9993ZM26.9993 28.666H22.8327V22.8327H26.9993V28.666ZM22.8327 21.166V19.5702L22.8468 19.4993H28.666L28.6668 21.166H22.8327Z" fill="#F8F8F8"/>
</svg>
