<svg xmlns="http://www.w3.org/2000/svg" width="495" height="258.745" viewBox="0 0 495 258.745">
  <g id="Group_144" data-name="Group 144" transform="translate(12.82 10.267)">
    <g id="Group_133" data-name="Group 133" transform="translate(212.423 86.673)">
      <path id="Path_103" data-name="Path 103" d="M174.222,135.8a41.482,41.482,0,1,0-41.48-41.482,41.531,41.531,0,0,0,41.48,41.482Zm0-82.079a40.6,40.6,0,1,1-40.6,40.6,40.643,40.643,0,0,1,40.6-40.6Z" transform="translate(-132.742 -52.839)" fill="#fff"/>
    </g>
    <g id="Group_134" data-name="Group 134" transform="translate(308.69 -9.453)" opacity="0.5">
      <path id="Path_104" data-name="Path 104" d="M234.115,68.552a39.145,39.145,0,1,0-39.144-39.147,39.189,39.189,0,0,0,39.144,39.147Zm0-77.455a38.31,38.31,0,1,1-38.31,38.308A38.352,38.352,0,0,1,234.115-8.9Z" transform="translate(-194.971 9.737)" fill="#fff"/>
    </g>
    <g id="Group_135" data-name="Group 135" transform="translate(199.406 44.756)">
      <path id="Path_105" data-name="Path 105" d="M152.043,80.859a27.654,27.654,0,1,0-27.65-27.654,27.685,27.685,0,0,0,27.65,27.654Zm0-54.714a27.062,27.062,0,1,1-27.059,27.061,27.092,27.092,0,0,1,27.059-27.061Z" transform="translate(-124.393 -25.552)" fill="#fff"/>
    </g>
    <g id="Group_136" data-name="Group 136" transform="translate(252.648 -8.279)">
      <path id="Path_106" data-name="Path 106" d="M176.782,26.865A17.919,17.919,0,1,0,158.866,8.944a17.941,17.941,0,0,0,17.916,17.921Zm0-35.456A17.536,17.536,0,1,1,159.249,8.944,17.556,17.556,0,0,1,176.782-8.591Z" transform="translate(-158.866 8.973)" fill="#fff"/>
    </g>
    <g id="Group_137" data-name="Group 137" transform="translate(24.566 -0.094)">
      <path id="Path_107" data-name="Path 107" d="M39.17,51.661A27.653,27.653,0,1,0,11.518,24.009,27.681,27.681,0,0,0,39.17,51.661Zm0-54.714A27.062,27.062,0,1,1,12.109,24.009,27.093,27.093,0,0,1,39.17-3.054Z" transform="translate(-11.518 3.645)" fill="#fff"/>
    </g>
    <path id="Path_108" data-name="Path 108" d="M205.23,108.667a27.84,27.84,0,1,0-27.839-27.838A27.84,27.84,0,0,0,205.23,108.667Z" transform="translate(103.988 33.913)" fill="#fff"/>
    <path id="Path_109" data-name="Path 109" d="M38.8,44.559A22.973,22.973,0,1,0,15.832,21.586,22.973,22.973,0,0,0,38.8,44.559Z" transform="translate(15.361 4.761)" fill="#fff"/>
    <path id="Path_110" data-name="Path 110" d="M174.674,21.23A12.763,12.763,0,1,0,161.91,8.469,12.761,12.761,0,0,0,174.674,21.23Z" transform="translate(95.405 3.202)" fill="#fff"/>
    <path id="Path_111" data-name="Path 111" d="M83.1,59.965A20.2,20.2,0,1,0,100.865,37.6,20.2,20.2,0,0,0,83.1,59.965Z" transform="translate(52.33 25.591)" fill="#fff"/>
    <path id="Path_112" data-name="Path 112" d="M217.769,94.38a17.954,17.954,0,1,0,17.954-17.956A17.954,17.954,0,0,0,217.769,94.38Z" transform="translate(125.957 46.478)" fill="#fff"/>
    <circle id="Ellipse_91" data-name="Ellipse 91" cx="28.856" cy="28.856" r="28.856" transform="translate(216.646 79.297)" fill="#fff"/>
    <path id="Path_113" data-name="Path 113" d="M57.892,32.975A25.008,25.008,0,1,0,82.9,7.965,25.007,25.007,0,0,0,57.892,32.975Z" transform="translate(38.649 9.775)" fill="#fff"/>
    <path id="Path_114" data-name="Path 114" d="M49.543,59.774a10.9,10.9,0,1,0,10.9-10.9A10.9,10.9,0,0,0,49.543,59.774Z" transform="translate(34.046 31.708)" fill="#fff"/>
    <path id="Path_115" data-name="Path 115" d="M274.99,35.3a10.9,10.9,0,1,0,10.9-10.9A10.9,10.9,0,0,0,274.99,35.3Z" transform="translate(157.306 18.587)" fill="#fff"/>
    <path id="Path_116" data-name="Path 116" d="M125.1,47.251a10.9,10.9,0,1,0,10.9-10.9A10.9,10.9,0,0,0,125.1,47.251Z" transform="translate(75.295 24.994)" fill="#fff"/>
    <path id="Path_117" data-name="Path 117" d="M193.558,108.2a6.732,6.732,0,1,0,6.733-6.736A6.731,6.731,0,0,0,193.558,108.2Z" transform="translate(112.634 59.906)" fill="#fff"/>
    <path id="Path_118" data-name="Path 118" d="M224.447,60.838a7.374,7.374,0,1,0,7.375-7.372A7.374,7.374,0,0,0,224.447,60.838Z" transform="translate(129.499 34.17)" fill="#fff"/>
    <path id="Path_119" data-name="Path 119" d="M123.012,59.848a5.129,5.129,0,1,0,5.129-5.131A5.13,5.13,0,0,0,123.012,59.848Z" transform="translate(74.124 34.841)" fill="#fff"/>
    <path id="Path_120" data-name="Path 120" d="M252.866,59.935a28.855,28.855,0,1,0,28.856-28.856A28.856,28.856,0,0,0,252.866,59.935Z" transform="translate(145.444 22.167)" fill="#fff"/>
    <g id="Group_138" data-name="Group 138" transform="translate(392.737 48.317)">
      <path id="Path_121" data-name="Path 121" d="M283.664,96.724A34.427,34.427,0,1,0,249.238,62.3a34.466,34.466,0,0,0,34.426,34.428Zm0-68.12A33.692,33.692,0,1,1,249.972,62.3,33.731,33.731,0,0,1,283.664,28.6Z" transform="translate(-249.238 -27.87)" fill="#fff"/>
    </g>
    <g id="Group_139" data-name="Group 139" transform="translate(79.929 75.01)">
      <path id="Path_122" data-name="Path 122" d="M62.357,75.626A15.189,15.189,0,1,0,47.168,60.438,15.207,15.207,0,0,0,62.357,75.626Zm0-30.055A14.865,14.865,0,1,1,47.492,60.438,14.884,14.884,0,0,1,62.357,45.571Z" transform="translate(-47.168 -45.247)" fill="#fff"/>
    </g>
    <g id="Group_140" data-name="Group 140" transform="translate(347.739 83.342)">
      <path id="Path_123" data-name="Path 123" d="M232.386,74.642A11.986,11.986,0,1,0,220.4,62.656a12,12,0,0,0,11.983,11.986Zm0-23.715A11.729,11.729,0,1,1,220.66,62.656a11.741,11.741,0,0,1,11.727-11.728Z" transform="translate(-220.403 -50.671)" fill="#fff"/>
    </g>
    <g id="Group_141" data-name="Group 141" transform="translate(120.351 50.32)">
      <path id="Path_124" data-name="Path 124" d="M106.977,89.5a30.26,30.26,0,1,0-33.5-26.62,30.295,30.295,0,0,0,33.5,26.62Zm-6.816-59.485A29.613,29.613,0,1,1,74.111,62.8a29.648,29.648,0,0,1,26.05-32.792Z" transform="translate(-73.274 -29.174)" fill="#fff"/>
    </g>
    <g id="Group_142" data-name="Group 142" transform="translate(-12.82 16.348)">
      <path id="Path_125" data-name="Path 125" d="M11.506,53.43A56.351,56.351,0,0,1-12.82,99.8V7.059A56.34,56.34,0,0,1,11.506,53.43Z" transform="translate(12.82 -7.059)" fill="#fff"/>
      <path id="Path_126" data-name="Path 126" d="M39.389,70.225a79.569,79.569,0,0,1,64.4-32.648c43.9,0,79.485,35.285,79.485,78.81,0,2.286-.121,4.544-.314,6.784a64.688,64.688,0,0,1,107.647,27.007,46.05,46.05,0,0,1,47.942-2.684,79.559,79.559,0,0,1,44.418-13.463,80.991,80.991,0,0,1,9.9.63c.3-43.271,35.757-78.262,79.468-78.262a80.618,80.618,0,0,1,9.842.622V222.827h-495V60.6A65.023,65.023,0,0,1,2.559,58.751,64.515,64.515,0,0,1,39.389,70.225Z" transform="translate(12.82 9.303)" fill="#fff"/>
    </g>
    <circle id="Ellipse_92" data-name="Ellipse 92" cx="33.61" cy="33.61" r="33.61" transform="matrix(0.973, -0.23, 0.23, 0.973, 308.837, 5.176)" fill="#fff"/>
  </g>
</svg>
