<svg width="24" height="24" viewBox="0 0 24 24" fill="none" xmlns="http://www.w3.org/2000/svg">
<path d="M11.2926 15.2926C10.902 15.6831 10.902 16.3163 11.2926 16.7068C11.6831 17.0973 12.3163 17.0973 12.7068 16.7068L11.2926 15.2926ZM15.9997 11.9997L16.7068 12.7068C17.0973 12.3163 17.0973 11.6831 16.7068 11.2926L15.9997 11.9997ZM12.7068 7.29257C12.3163 6.90204 11.6831 6.90204 11.2926 7.29257C10.902 7.68309 10.902 8.31626 11.2926 8.70678L12.7068 7.29257ZM1.33301 10.9997C0.780723 10.9997 0.333008 11.4474 0.333008 11.9997C0.333008 12.552 0.780723 12.9997 1.33301 12.9997L1.33301 10.9997ZM9.64551 22.4634L9.26282 23.3873L9.64551 22.4634ZM8.99967 18.6663C8.99967 18.1141 8.55196 17.6663 7.99967 17.6663C7.44739 17.6663 6.99967 18.1141 6.99967 18.6663H8.99967ZM8.20266 21.0202L7.27878 21.4028L8.20266 21.0202ZM22.376 21.2104L21.485 20.7564L22.376 21.2104ZM21.2101 22.3757L20.7561 21.4846L21.2101 22.3757ZM21.2101 1.62366L21.664 0.732651L21.2101 1.62366ZM22.376 2.78906L21.485 3.24305V3.24305L22.376 2.78906ZM6.99967 5.33299C6.99967 5.88527 7.44739 6.33299 7.99967 6.33299C8.55196 6.33299 8.99967 5.88527 8.99967 5.33299H6.99967ZM12.7068 16.7068L16.7068 12.7068L15.2926 11.2926L11.2926 15.2926L12.7068 16.7068ZM16.7068 11.2926L12.7068 7.29257L11.2926 8.70678L15.2926 12.7068L16.7068 11.2926ZM15.9997 10.9997L1.33301 10.9997L1.33301 12.9997L15.9997 12.9997V10.9997ZM11.9997 2.33301H18.3997V0.333008H11.9997V2.33301ZM21.6663 5.59961V18.3996H23.6663V5.59961H21.6663ZM18.3997 21.6663H11.9997V23.6663H18.3997V21.6663ZM11.9997 21.6663C11.3647 21.6663 10.9385 21.6658 10.6085 21.6433C10.2873 21.6214 10.131 21.5821 10.0282 21.5395L9.26282 23.3873C9.65006 23.5477 10.0496 23.6098 10.4724 23.6387C10.8863 23.6669 11.3921 23.6663 11.9997 23.6663V21.6663ZM6.99967 18.6663C6.99967 19.2739 6.99913 19.7797 7.02737 20.1935C7.05621 20.6163 7.1184 21.0157 7.27878 21.4028L9.12654 20.6375C9.08393 20.5346 9.04463 20.3783 9.02273 20.0574C9.00022 19.7274 8.99967 19.3013 8.99967 18.6663H6.99967ZM10.0282 21.5395C9.62006 21.3704 9.2958 21.0461 9.12654 20.6375L7.27878 21.4028C7.65082 22.301 8.36414 23.015 9.26282 23.3873L10.0282 21.5395ZM21.6663 18.3996C21.6663 19.1629 21.6656 19.6753 21.6335 20.0699C21.6022 20.4528 21.5464 20.6358 21.485 20.7564L23.267 21.6644C23.4962 21.2146 23.5855 20.7389 23.6268 20.2324C23.6672 19.7376 23.6663 19.1297 23.6663 18.3996H21.6663ZM18.3997 23.6663C19.1299 23.6663 19.7377 23.6671 20.2325 23.6267C20.739 23.5853 21.2144 23.4958 21.664 23.2667L20.7561 21.4846C20.6353 21.5462 20.4523 21.602 20.0695 21.6333C19.6751 21.6656 19.1629 21.6663 18.3997 21.6663V23.6663ZM21.485 20.7564C21.3254 21.0695 21.0702 21.3246 20.7561 21.4846L21.664 23.2667C22.3535 22.9154 22.9152 22.3548 23.267 21.6644L21.485 20.7564ZM18.3997 2.33301C19.1629 2.33301 19.6751 2.33379 20.0696 2.36602C20.4523 2.39729 20.6353 2.45313 20.7561 2.51466L21.664 0.732651C21.2144 0.503539 20.7389 0.414049 20.2324 0.372661C19.7377 0.33223 19.1299 0.333008 18.3997 0.333008V2.33301ZM23.6663 5.59961C23.6663 4.86948 23.6672 4.26167 23.6268 3.76692C23.5855 3.26047 23.4962 2.78486 23.267 2.33507L21.485 3.24305C21.5464 3.3637 21.6022 3.54662 21.6335 3.92947C21.6656 4.32402 21.6663 4.83627 21.6663 5.59961H23.6663ZM20.7561 2.51466C21.0701 2.67466 21.3254 2.92986 21.485 3.24305L23.267 2.33507C22.9152 1.64473 22.3536 1.08398 21.664 0.732651L20.7561 2.51466ZM8.99967 5.33299C8.99967 4.69805 9.00022 4.27193 9.02273 3.94198C9.04463 3.62101 9.08393 3.46472 9.12654 3.36185L7.27878 2.59648C7.1184 2.98367 7.05621 3.38304 7.02737 3.80584C6.99913 4.21965 6.99967 4.72542 6.99967 5.33299H8.99967ZM11.9997 0.333008C11.3921 0.333008 10.8863 0.332467 10.4724 0.3607C10.0495 0.389543 9.65005 0.451723 9.26282 0.612116L10.0282 2.45988C10.131 2.41728 10.2874 2.37797 10.6085 2.35606C10.9385 2.33355 11.3647 2.33301 11.9997 2.33301V0.333008ZM9.12654 3.36185C9.29579 2.95325 9.62003 2.62894 10.0282 2.45988L9.26282 0.612116C8.36417 0.984352 7.65084 1.69827 7.27878 2.59648L9.12654 3.36185Z" fill="#707070"/>
</svg>
