<svg width="32" height="32" viewBox="0 0 32 32" fill="none" xmlns="http://www.w3.org/2000/svg">
<path d="M22.667 24.0003C22.667 24.7367 23.2639 25.3337 24.0003 25.3337C24.7367 25.3337 25.3337 24.7367 25.3337 24.0003C25.3337 23.2639 24.7367 22.667 24.0003 22.667C23.2639 22.667 22.667 23.2639 22.667 24.0003Z" fill="#707070"/>
<path d="M14.667 24.0003C14.667 24.7367 15.2639 25.3337 16.0003 25.3337C16.7367 25.3337 17.3337 24.7367 17.3337 24.0003C17.3337 23.2639 16.7367 22.667 16.0003 22.667C15.2639 22.667 14.667 23.2639 14.667 24.0003Z" fill="#707070"/>
<path d="M6.66699 24.0003C6.66699 24.7367 7.26395 25.3337 8.00033 25.3337C8.73671 25.3337 9.33366 24.7367 9.33366 24.0003C9.33366 23.2639 8.73671 22.667 8.00033 22.667C7.26395 22.667 6.66699 23.2639 6.66699 24.0003Z" fill="#707070"/>
<path d="M22.667 16.0003C22.667 16.7367 23.2639 17.3337 24.0003 17.3337C24.7367 17.3337 25.3337 16.7367 25.3337 16.0003C25.3337 15.2639 24.7367 14.667 24.0003 14.667C23.2639 14.667 22.667 15.2639 22.667 16.0003Z" fill="#707070"/>
<path d="M14.667 16.0003C14.667 16.7367 15.2639 17.3337 16.0003 17.3337C16.7367 17.3337 17.3337 16.7367 17.3337 16.0003C17.3337 15.2639 16.7367 14.667 16.0003 14.667C15.2639 14.667 14.667 15.2639 14.667 16.0003Z" fill="#707070"/>
<path d="M6.66699 16.0003C6.66699 16.7367 7.26395 17.3337 8.00033 17.3337C8.73671 17.3337 9.33366 16.7367 9.33366 16.0003C9.33366 15.2639 8.73671 14.667 8.00033 14.667C7.26395 14.667 6.66699 15.2639 6.66699 16.0003Z" fill="#707070"/>
<path d="M22.667 8.00033C22.667 8.73671 23.2639 9.33366 24.0003 9.33366C24.7367 9.33366 25.3337 8.73671 25.3337 8.00033C25.3337 7.26395 24.7367 6.66699 24.0003 6.66699C23.2639 6.66699 22.667 7.26395 22.667 8.00033Z" fill="#707070"/>
<path d="M14.667 8.00033C14.667 8.73671 15.2639 9.33366 16.0003 9.33366C16.7367 9.33366 17.3337 8.73671 17.3337 8.00033C17.3337 7.26395 16.7367 6.66699 16.0003 6.66699C15.2639 6.66699 14.667 7.26395 14.667 8.00033Z" fill="#707070"/>
<path d="M6.66699 8.00033C6.66699 8.73671 7.26395 9.33366 8.00033 9.33366C8.73671 9.33366 9.33366 8.73671 9.33366 8.00033C9.33366 7.26395 8.73671 6.66699 8.00033 6.66699C7.26395 6.66699 6.66699 7.26395 6.66699 8.00033Z" fill="#707070"/>
<path d="M24.0003 24.3337C23.8162 24.3337 23.667 24.1844 23.667 24.0003H21.667C21.667 25.289 22.7117 26.3337 24.0003 26.3337V24.3337ZM24.3337 24.0003C24.3337 24.1844 24.1844 24.3337 24.0003 24.3337V26.3337C25.289 26.3337 26.3337 25.289 26.3337 24.0003H24.3337ZM24.0003 23.667C24.1844 23.667 24.3337 23.8162 24.3337 24.0003H26.3337C26.3337 22.7117 25.289 21.667 24.0003 21.667V23.667ZM24.0003 21.667C22.7117 21.667 21.667 22.7117 21.667 24.0003H23.667C23.667 23.8162 23.8162 23.667 24.0003 23.667V21.667ZM16.0003 24.3337C15.8162 24.3337 15.667 24.1844 15.667 24.0003H13.667C13.667 25.289 14.7117 26.3337 16.0003 26.3337V24.3337ZM16.3337 24.0003C16.3337 24.1844 16.1844 24.3337 16.0003 24.3337V26.3337C17.289 26.3337 18.3337 25.289 18.3337 24.0003H16.3337ZM16.0003 23.667C16.1844 23.667 16.3337 23.8162 16.3337 24.0003H18.3337C18.3337 22.7117 17.289 21.667 16.0003 21.667V23.667ZM16.0003 21.667C14.7117 21.667 13.667 22.7117 13.667 24.0003H15.667C15.667 23.8162 15.8162 23.667 16.0003 23.667V21.667ZM8.00033 24.3337C7.81623 24.3337 7.66699 24.1844 7.66699 24.0003H5.66699C5.66699 25.289 6.71166 26.3337 8.00033 26.3337V24.3337ZM8.33366 24.0003C8.33366 24.1844 8.18442 24.3337 8.00033 24.3337V26.3337C9.28899 26.3337 10.3337 25.289 10.3337 24.0003H8.33366ZM8.00033 23.667C8.18442 23.667 8.33366 23.8162 8.33366 24.0003H10.3337C10.3337 22.7117 9.28899 21.667 8.00033 21.667V23.667ZM8.00033 21.667C6.71166 21.667 5.66699 22.7117 5.66699 24.0003H7.66699C7.66699 23.8162 7.81623 23.667 8.00033 23.667V21.667ZM24.0003 16.3337C23.8162 16.3337 23.667 16.1844 23.667 16.0003H21.667C21.667 17.289 22.7117 18.3337 24.0003 18.3337V16.3337ZM24.3337 16.0003C24.3337 16.1844 24.1844 16.3337 24.0003 16.3337V18.3337C25.289 18.3337 26.3337 17.289 26.3337 16.0003H24.3337ZM24.0003 15.667C24.1844 15.667 24.3337 15.8162 24.3337 16.0003H26.3337C26.3337 14.7117 25.289 13.667 24.0003 13.667V15.667ZM24.0003 13.667C22.7117 13.667 21.667 14.7117 21.667 16.0003H23.667C23.667 15.8162 23.8162 15.667 24.0003 15.667V13.667ZM16.0003 16.3337C15.8162 16.3337 15.667 16.1844 15.667 16.0003H13.667C13.667 17.289 14.7117 18.3337 16.0003 18.3337V16.3337ZM16.3337 16.0003C16.3337 16.1844 16.1844 16.3337 16.0003 16.3337V18.3337C17.289 18.3337 18.3337 17.289 18.3337 16.0003H16.3337ZM16.0003 15.667C16.1844 15.667 16.3337 15.8162 16.3337 16.0003H18.3337C18.3337 14.7117 17.289 13.667 16.0003 13.667V15.667ZM16.0003 13.667C14.7117 13.667 13.667 14.7117 13.667 16.0003H15.667C15.667 15.8162 15.8162 15.667 16.0003 15.667V13.667ZM8.00033 16.3337C7.81623 16.3337 7.66699 16.1844 7.66699 16.0003H5.66699C5.66699 17.289 6.71166 18.3337 8.00033 18.3337V16.3337ZM8.33366 16.0003C8.33366 16.1844 8.18442 16.3337 8.00033 16.3337V18.3337C9.28899 18.3337 10.3337 17.289 10.3337 16.0003H8.33366ZM8.00033 15.667C8.18442 15.667 8.33366 15.8162 8.33366 16.0003H10.3337C10.3337 14.7117 9.28899 13.667 8.00033 13.667V15.667ZM8.00033 13.667C6.71166 13.667 5.66699 14.7117 5.66699 16.0003H7.66699C7.66699 15.8162 7.81623 15.667 8.00033 15.667V13.667ZM24.0003 8.33366C23.8162 8.33366 23.667 8.18442 23.667 8.00033H21.667C21.667 9.28899 22.7117 10.3337 24.0003 10.3337V8.33366ZM24.3337 8.00033C24.3337 8.18442 24.1844 8.33366 24.0003 8.33366V10.3337C25.289 10.3337 26.3337 9.28899 26.3337 8.00033H24.3337ZM24.0003 7.66699C24.1844 7.66699 24.3337 7.81623 24.3337 8.00033H26.3337C26.3337 6.71166 25.289 5.66699 24.0003 5.66699V7.66699ZM24.0003 5.66699C22.7117 5.66699 21.667 6.71166 21.667 8.00033H23.667C23.667 7.81623 23.8162 7.66699 24.0003 7.66699V5.66699ZM16.0003 8.33366C15.8162 8.33366 15.667 8.18442 15.667 8.00033H13.667C13.667 9.28899 14.7117 10.3337 16.0003 10.3337V8.33366ZM16.3337 8.00033C16.3337 8.18442 16.1844 8.33366 16.0003 8.33366V10.3337C17.289 10.3337 18.3337 9.28899 18.3337 8.00033H16.3337ZM16.0003 7.66699C16.1844 7.66699 16.3337 7.81623 16.3337 8.00033H18.3337C18.3337 6.71166 17.289 5.66699 16.0003 5.66699V7.66699ZM16.0003 5.66699C14.7117 5.66699 13.667 6.71166 13.667 8.00033H15.667C15.667 7.81623 15.8162 7.66699 16.0003 7.66699V5.66699ZM8.00033 8.33366C7.81623 8.33366 7.66699 8.18442 7.66699 8.00033H5.66699C5.66699 9.28899 6.71166 10.3337 8.00033 10.3337V8.33366ZM8.33366 8.00033C8.33366 8.18442 8.18442 8.33366 8.00033 8.33366V10.3337C9.28899 10.3337 10.3337 9.28899 10.3337 8.00033H8.33366ZM8.00033 7.66699C8.18442 7.66699 8.33366 7.81623 8.33366 8.00033H10.3337C10.3337 6.71166 9.28899 5.66699 8.00033 5.66699V7.66699ZM8.00033 5.66699C6.71166 5.66699 5.66699 6.71166 5.66699 8.00033H7.66699C7.66699 7.81623 7.81623 7.66699 8.00033 7.66699V5.66699Z" fill="#707070"/>
</svg>
