<svg width="36" height="30" viewBox="0 0 36 30" fill="none" xmlns="http://www.w3.org/2000/svg">
<path d="M3.20562 15.4114C2.85519 15.3934 2.50668 15.348 2.16333 15.2757C1.77271 15.1557 1.44002 14.8961 1.22873 14.5463C1.01744 14.1965 0.942369 13.7812 1.0179 13.3796C1.08269 12.99 1.28437 12.6363 1.58667 12.3821C1.88897 12.1279 2.27203 11.9899 2.66699 11.9929C3.92699 11.9929 5.18536 11.9929 6.41773 11.9929C6.41256 12.4729 6.44434 12.9525 6.51278 13.4275C6.65641 14.0719 6.99941 14.6546 7.49304 15.093C7.98667 15.5314 8.60585 15.8031 9.26267 15.8696C9.8747 15.9342 10.4924 15.8217 11.0423 15.5453C11.5922 15.2689 12.0511 14.8403 12.3643 14.3106C12.7694 13.6271 13.1658 12.9382 13.5536 12.2439C13.5886 12.1621 13.6485 12.0933 13.7248 12.0474C13.801 12.0015 13.8898 11.9807 13.9785 11.988C16.8576 11.9961 19.7364 11.9961 22.6149 11.988C22.7099 11.9798 22.8051 12.0018 22.8868 12.051C22.9685 12.1002 23.0326 12.174 23.0698 12.2618C23.4419 12.9361 23.8245 13.6049 24.2177 14.2684C24.5623 14.8744 25.0954 15.3514 25.7359 15.6268C26.3763 15.9021 27.0892 15.9609 27.7661 15.794C28.4425 15.6237 29.0448 15.2376 29.4819 14.6942C29.9191 14.1507 30.1672 13.4796 30.1886 12.7825C30.185 12.5187 30.1657 12.2553 30.1309 11.9937H30.4778C31.6292 11.9937 32.7806 11.9937 33.932 11.9937C34.3715 11.9859 34.7962 12.1524 35.1132 12.4569C35.4301 12.7614 35.6136 13.179 35.6234 13.6185C35.6319 13.8424 35.5957 14.0657 35.517 14.2754C35.4383 14.4852 35.3187 14.6772 35.165 14.8403C35.0114 15.0034 34.8269 15.1343 34.6221 15.2254C34.4174 15.3164 34.1966 15.3658 33.9726 15.3707C33.4162 15.3911 33.4178 15.3919 33.274 15.9345C32.2147 19.926 31.1546 23.9172 30.0936 27.9081C29.9514 28.5216 29.5995 29.0661 29.0986 29.4477C28.5977 29.8293 27.9794 30.0241 27.3502 29.9984H9.23426C8.61098 30.0154 8.00097 29.8162 7.50787 29.4346C7.01476 29.053 6.66893 28.5125 6.52904 27.9049C5.42259 23.739 4.31478 19.5745 3.20562 15.4114ZM27.2568 22.9283C27.2568 21.7536 27.2568 20.5797 27.2568 19.405C27.2673 19.2764 27.2516 19.1471 27.2105 19.0248C27.1695 18.9025 27.104 18.7898 27.0181 18.6936C26.9321 18.5974 26.8275 18.5197 26.7106 18.4652C26.5937 18.4107 26.4669 18.3805 26.338 18.3765C26.2061 18.3729 26.0749 18.3968 25.9528 18.4466C25.8307 18.4964 25.7203 18.5711 25.6286 18.666C25.5369 18.7608 25.4659 18.8737 25.4202 18.9974C25.3745 19.1211 25.3551 19.253 25.3631 19.3847C25.3534 19.7145 25.3631 20.0452 25.3631 20.3758C25.3631 22.3796 25.3631 24.3857 25.3631 26.3939C25.3443 26.5835 25.3785 26.7746 25.462 26.9459C25.5455 27.1172 25.6749 27.2619 25.8359 27.3638C25.984 27.4521 26.1534 27.4981 26.3258 27.4969C26.4982 27.4956 26.6669 27.4473 26.8138 27.3569C26.9606 27.2666 27.0798 27.1378 27.1587 26.9845C27.2375 26.8312 27.2728 26.6593 27.2608 26.4873C27.2633 25.3012 27.256 24.1151 27.2568 22.9307V22.9283ZM16.5976 22.9624C16.5976 21.7885 16.5976 20.6138 16.5976 19.4399C16.6129 19.3054 16.5995 19.1692 16.5582 19.0403C16.5169 18.9114 16.4486 18.7927 16.358 18.6922C16.2674 18.5916 16.1564 18.5115 16.0324 18.4571C15.9085 18.4027 15.7744 18.3752 15.639 18.3765C15.5066 18.3775 15.3758 18.4062 15.2552 18.4607C15.1345 18.5152 15.0266 18.5943 14.9383 18.693C14.85 18.7917 14.7834 18.9077 14.7426 19.0337C14.7018 19.1597 14.6878 19.2928 14.7015 19.4245C14.6972 21.7728 14.6988 24.1211 14.7064 26.4694C14.7102 26.6757 14.7637 26.878 14.8624 27.0592C14.9617 27.2298 15.1147 27.3628 15.2975 27.4373C15.4803 27.5118 15.6827 27.5237 15.873 27.4711C16.0884 27.4151 16.2779 27.2864 16.4095 27.1069C16.541 26.9274 16.6066 26.7079 16.5952 26.4857C16.6025 25.311 16.5968 24.1371 16.5976 22.9624ZM9.38128 22.9478C9.38128 24.1111 9.38128 25.2752 9.38128 26.441C9.37621 26.5989 9.39794 26.7566 9.44549 26.9073C9.52067 27.1031 9.65956 27.2679 9.83978 27.3752C10.02 27.4824 10.231 27.5259 10.439 27.4987C10.6777 27.4613 10.8935 27.3351 11.043 27.1452C11.1925 26.9553 11.2646 26.7159 11.2449 26.4751C11.2503 24.1111 11.2503 21.7471 11.2449 19.3831C11.2558 19.2544 11.2396 19.1248 11.1975 19.0027C11.1553 18.8806 11.0881 18.7687 11.0001 18.6742C10.9121 18.5796 10.8053 18.5045 10.6866 18.4537C10.5678 18.4028 10.4398 18.3774 10.3107 18.379C10.1819 18.3794 10.0546 18.4063 9.93676 18.4581C9.81889 18.5099 9.71294 18.5854 9.62553 18.6799C9.53811 18.7744 9.47107 18.8859 9.42863 19.0074C9.38619 19.129 9.36925 19.2579 9.37885 19.3863C9.37966 20.5748 9.38128 21.7601 9.38128 22.9478ZM21.9081 22.9478C21.9081 21.7845 21.9146 20.6203 21.9024 19.4546C21.9054 19.2366 21.8591 19.0208 21.7668 18.8233C21.6661 18.6458 21.5083 18.5075 21.319 18.4311C21.1298 18.3547 20.9202 18.3446 20.7245 18.4025C20.5225 18.4601 20.3456 18.5835 20.2217 18.753C20.0978 18.9225 20.034 19.1285 20.0405 19.3384C20.0372 21.7024 20.0372 24.0664 20.0405 26.4304C20.0252 26.5644 20.0382 26.7 20.0789 26.8285C20.1195 26.9571 20.1868 27.0756 20.2763 27.1764C20.3659 27.2772 20.4756 27.358 20.5985 27.4135C20.7213 27.4691 20.8545 27.4981 20.9893 27.4987C21.1208 27.4936 21.2499 27.4614 21.3685 27.4043C21.4871 27.3472 21.5927 27.2663 21.6787 27.1666C21.7647 27.067 21.8293 26.9507 21.8685 26.825C21.9077 26.6994 21.9206 26.567 21.9065 26.4361C21.9105 25.2768 21.9081 24.1127 21.9081 22.9494V22.9478Z" fill="#707070"/>
<path d="M9.611 14.3604C9.30961 14.3638 9.01287 14.2859 8.75205 14.1348C8.49122 13.9838 8.27596 13.7652 8.12893 13.5021C7.98191 13.239 7.90856 12.9411 7.91661 12.6398C7.92467 12.3385 8.01384 12.0449 8.17472 11.79C9.6944 9.14061 11.2176 6.49335 12.7443 3.84826C13.2317 3.00095 13.7192 2.15121 14.2115 1.30959C14.3182 1.10921 14.4645 0.932616 14.6416 0.790528C14.8187 0.648441 15.0228 0.543819 15.2415 0.483037C15.4602 0.422255 15.6891 0.406557 15.914 0.436924C16.139 0.467291 16.3555 0.543079 16.5503 0.659678C16.7446 0.771379 16.9144 0.92093 17.0498 1.09946C17.1853 1.27798 17.2835 1.48187 17.3387 1.69904C17.3939 1.91622 17.405 2.14225 17.3713 2.36378C17.3376 2.58532 17.2598 2.79783 17.1425 2.98876C15.1354 6.48738 13.1237 9.9833 11.1074 13.4765C10.9665 13.7498 10.7514 13.9778 10.4866 14.1342C10.2219 14.2906 9.91836 14.369 9.611 14.3604Z" fill="#707070"/>
<path d="M27.0192 14.3851C26.691 14.3811 26.3704 14.2862 26.0929 14.111C25.8154 13.9357 25.5919 13.687 25.4473 13.3923C24.0505 10.9552 22.65 8.5181 21.2457 6.08098C20.6421 5.0322 20.0271 3.99073 19.4373 2.93464C19.2452 2.58983 19.1792 2.18883 19.2508 1.80064C19.3224 1.41246 19.5271 1.0614 19.8297 0.80786C20.1401 0.55372 20.5301 0.4171 20.9313 0.422003C21.3324 0.426905 21.719 0.573009 22.0231 0.83466C22.1692 0.964375 22.2937 1.11657 22.3919 1.28552C24.412 4.78956 26.4278 8.29604 28.4392 11.805C28.5686 12.0133 28.6504 12.2475 28.679 12.4911C28.7076 12.7346 28.6823 12.9815 28.6047 13.2141C28.5272 13.4467 28.3994 13.6594 28.2304 13.8371C28.0614 14.0147 27.8553 14.153 27.6268 14.2421C27.4286 14.3064 27.2253 14.3542 27.0192 14.3851Z" fill="#707070"/>
</svg>
