<svg xmlns="http://www.w3.org/2000/svg" xmlns:xlink="http://www.w3.org/1999/xlink" width="18" height="16" viewBox="0 0 18 16"><defs><path id="a3k9a" d="M1234.118 798.028l-6.112 6.113-6.113-6.113a4.02 4.02 0 1 1 5.683-5.686.608.608 0 0 0 .859 0 4.02 4.02 0 0 1 5.683 5.686zm.86-6.545a5.243 5.243 0 0 0-6.972-.385 5.235 5.235 0 0 0-6.972 7.79l6.542 6.542a.607.607 0 0 0 .86 0l6.542-6.543a5.242 5.242 0 0 0 0-7.404z"/></defs><g><g transform="translate(-1219 -790)"><use fill="#5f5f5f" xlink:href="#a3k9a"/></g></g></svg>