<svg xmlns="http://www.w3.org/2000/svg" xmlns:xlink="http://www.w3.org/1999/xlink" width="59" height="59" viewBox="0 0 59 59"><defs><path id="b8wma" d="M549.346 81c-15.114 0-29.556 12.305-29.391 28.734.182 18.222 17.281 28.779 34.055 26.882.173-.024.336-.066.5-.093v.018c-.16.02-.329.051-.5.075a40.012 40.012 0 0 1-26.785-6.53c5.415 6.13 13.309 10.008 22.121 10.008 16.324 0 29.552-13.227 29.552-29.545C578.898 94.223 565.67 81 549.346 81"/><path id="b8wmb" d="M560.564 88.425l-.087 4.156c-.013.547-.16.887-.433 1.02-.16.074-.278.029-.355-.12a1.157 1.157 0 0 1-.102-.566l.097-4.036c-.01-.259.132-.459.439-.611.222-.107.365-.102.433.032zm3.65 2.31a2.223 2.223 0 0 1-.553.418c-.191.097-.328.07-.4-.074a.63.63 0 0 1-.056-.307c.012-.658.018-1.224.035-1.716.011-.49.02-.895.02-1.215l.047-2.11-1.814.896-.014.426c-.52-.205-1.107-.153-1.755.167-.88.436-1.555 1.15-2.025 2.151a6.784 6.784 0 0 0-.634 2.751l-.018.659c-.015.872.084 1.521.288 1.94.396.8 1.287.857 2.678.174.606-.302 1.055-.732 1.346-1.312.22.315.542.367.983.157.66-.333 1.306-.825 1.923-1.46z"/><path id="b8wmc" d="M556.742 94.4c-.19.18-.374.324-.55.416-.198.098-.335.076-.404-.074a.635.635 0 0 1-.052-.316l.111-4.205-2.831.017h-.02l-.132 6.225a.743.743 0 0 1-.447.687c-.183.088-.307.074-.366-.051-.012-.019-.026-.084-.05-.186l.07-3.163-2.83-.023-.088 4.564c-.014.31-.164.538-.467.691-.17.078-.286.065-.35-.066a.795.795 0 0 1-.038-.18l.102-5.028-2.687-.033-.082 4.222-.014.004-.01.886c-.006.584.084 1.076.284 1.484.403.821 1.066 1.001 1.98.552.956-.459 1.623-1.109 2.015-1.943.448.422 1.02.464 1.698.125.91-.441 1.531-1.016 1.852-1.725.187.152.402.245.66.274.25.027.503-.02.767-.154.668-.32 1.315-.812 1.931-1.461z"/><path id="b8wmd" d="M541.774 97.645l-.096 4.162c-.009.537-.15.872-.428 1.016-.162.078-.274.036-.354-.126a1.048 1.048 0 0 1-.1-.562l.1-4.044c-.02-.254.126-.455.428-.607.228-.107.369-.085.433.04zm3.643 2.307c-.183.194-.37.323-.548.417-.199.097-.328.07-.405-.08a.57.57 0 0 1-.048-.3c.004-.645.02-1.226.026-1.717.01-.483.022-.89.026-1.216l.047-2.104-1.813.89-.014.427c-.525-.2-1.109-.14-1.751.172-.883.426-1.558 1.149-2.036 2.147a7.122 7.122 0 0 0-.634 2.75l-.011.658c-.016.877.079 1.522.28 1.94.393.802 1.293.862 2.686.175a2.86 2.86 0 0 0 1.344-1.307c.215.31.54.361.98.148.67-.325 1.308-.817 1.932-1.456z"/><path id="b8wme" d="M560.025 125.767c0 .404-.142.607-.416.607h-6.116c-.29 0-.429-.203-.429-.607v-1.55c0-.282.021-.468.083-.528.056-.06.174-.089.346-.089h6.116c.175 0 .29.03.336.089.054.06.08.246.08.528z"/><path id="b8wmf" d="M557.224 118.833c-.16.32-.394.478-.694.478-.296 0-.536-.144-.695-.418-.15-.283-.232-.75-.232-1.415 0-1.187.308-1.78.927-1.78.624 0 .932.612.932 1.837 0 .552-.084.992-.238 1.298m2.342-4.838c-.664-.848-1.682-1.275-3.036-1.275-1.324 0-2.33.427-3.005 1.289-.678.872-1.014 2.027-1.014 3.503 0 .723.072 1.386.214 1.98.14.593.378 1.095.702 1.502.327.417.745.73 1.253.956.515.227 1.13.338 1.85.338 1.38 0 2.403-.421 3.063-1.266.652-.844.983-2.012.983-3.51 0-1.49-.34-2.658-1.01-3.517"/><path id="b8wmg" d="M574.185 94.535l-29.106 14.957a1.475 1.475 0 0 0-.067.065c-.059.097-.085.273-.085.515v11.094h-.184l-1.663-3.734-3.044-6.604a4.263 4.263 0 0 0-.44-.78 1.644 1.644 0 0 0-.454-.431 1.585 1.585 0 0 0-.56-.172 9.082 9.082 0 0 0-.752-.023h-1.355c-.723 0-1.22.163-1.496.5-.266.335-.396.998-.396 1.972v18.863c0 .442.197.664.591.664h3.694c.295 0 .471-.046.534-.14.06-.1.09-.273.09-.524v-11.094h.18l1.745 3.966 2.961 6.372c.158.339.302.6.446.794.134.18.285.324.447.417.167.097.356.158.56.176.208.019.456.033.75.033h1.355c.78 0 1.285-.24 1.53-.71.248-.463.365-1.067.365-1.78v-16.36L576.5 98.866a29.364 29.364 0 0 0-2.315-4.33"/><path id="b8wmh" d="M574.116 126.667c-.01-.015-.019-.015-.023-.019-.093-.06-.277-.083-.547-.083h-2.516V110.46c0-.57-.1-1.025-.288-1.359a1.68 1.68 0 0 0-.8-.733c-.34-.148-.726-.217-1.174-.217-.435 0-.9.06-1.375.208l-6.078 1.591c-.318.083-.504.223-.55.376-.04.158-.06.339-.06.542v3.126c0 .312.051.51.15.594.1.08.325.088.66.019l3.364-.613v12.57h-2.075c-.275 0-.453.023-.54.083-.096.05-.138.274-.138.664v3.39c0 .287.051.491.155.585.098.088.274.134.523.134h7.458a29.742 29.742 0 0 0 3.854-4.754"/><path id="b8wmi" d="M521.13 101.551c.15-.486.313-.964.485-1.438l8.276-4.095c1.206-.594 2.03-.798 2.472-.608.387-.635 1.1-1.205 2.136-1.725.633-.311 1.241-.501 1.824-.575.743-.084 1.214.074 1.414.487.077.158.111.333.102.556l-.03 1.086c-.012.77-.26 1.562-.749 2.364a6.604 6.604 0 0 1-1.779 1.963c1.076-.222 1.803.042 2.187.822.141.277.203.611.197.997l-.025.997c-.024 1.246-.613 2.448-1.752 3.608-.876.915-1.969 1.684-3.254 2.31l-3.06 1.498.266-11.823a.295.295 0 0 0-.035-.138c-.055-.112-.182-.183-.373-.21a.807.807 0 0 0-.512.06l-7.79 3.864m11.614-1.011c1.437-1.392 2.164-2.454 2.177-3.196l.053-1.535c0-.13-.02-.255-.084-.38-.181-.37-.539-.428-1.065-.167-.643.316-.972.854-.979 1.59zm-.128 5.886a.45.45 0 0 0 .03.214c.055.097.147.12.297.046.183-.089.393-.279.63-.562.787-.964 1.188-1.883 1.216-2.759l.02-.812a1.197 1.197 0 0 0-.122-.593c-.26-.53-.908-.752-1.959-.655z"/></defs><g><g transform="translate(-520 -81)"><use fill="#c10010" xlink:href="#b8wma"/></g><g transform="translate(-520 -81)"><use fill="#fff" xlink:href="#b8wmb"/></g><g transform="translate(-520 -81)"><use fill="#fff" xlink:href="#b8wmc"/></g><g transform="translate(-520 -81)"><use fill="#fff" xlink:href="#b8wmd"/></g><g transform="translate(-520 -81)"><use fill="#fff" xlink:href="#b8wme"/></g><g transform="translate(-520 -81)"><use fill="#fff" xlink:href="#b8wmf"/></g><g transform="translate(-520 -81)"><use fill="#fff" xlink:href="#b8wmg"/></g><g transform="translate(-520 -81)"><use fill="#fff" xlink:href="#b8wmh"/></g><g transform="translate(-520 -81)"><use fill="#fff" xlink:href="#b8wmi"/></g></g></svg>