<svg xmlns="http://www.w3.org/2000/svg" xmlns:xlink="http://www.w3.org/1999/xlink" width="28" height="23" viewBox="0 0 28 23"><defs><path id="p97fa" d="M1086.933 3832.607l-.043 2.055c-.006.271-.078.439-.213.505-.08.036-.138.014-.176-.06a.572.572 0 0 1-.05-.28l.048-1.995c-.005-.128.065-.227.216-.303.11-.052.181-.05.215.016zm1.805 1.142a1.1 1.1 0 0 1-.273.207c-.094.048-.162.034-.198-.036a.312.312 0 0 1-.027-.152c.005-.326.009-.606.017-.85.006-.242.01-.441.01-.6l.023-1.043-.897.443-.007.21c-.257-.1-.547-.075-.868.083-.435.216-.769.569-1.001 1.064a3.355 3.355 0 0 0-.314 1.36l-.009.326c-.007.431.042.752.143.96.196.395.636.423 1.324.086.3-.15.522-.363.666-.65.108.156.268.182.486.079.326-.165.646-.409.95-.723z"/><path id="p97fb" d="M1085.043 3835.561c-.094.09-.184.161-.272.207-.097.048-.165.037-.199-.037a.314.314 0 0 1-.026-.156l.055-2.08-1.4.009h-.01l-.065 3.078a.367.367 0 0 1-.221.34c-.09.043-.152.036-.181-.026-.006-.009-.013-.041-.025-.091l.034-1.564-1.398-.012-.044 2.257c-.007.154-.081.266-.231.342-.085.038-.142.032-.173-.033a.393.393 0 0 1-.019-.089l.05-2.486-1.329-.017-.04 2.088-.007.002-.004.438c-.004.29.04.532.14.734.199.406.527.495.979.273.472-.227.802-.548.996-.96.222.208.505.229.84.061.45-.218.757-.502.916-.853a.61.61 0 0 0 .326.135.66.66 0 0 0 .38-.076c.33-.158.65-.401.955-.722z"/><path id="p97fc" d="M1077.641 3837.167l-.047 2.058c-.004.266-.074.43-.211.502-.08.039-.136.018-.176-.062a.519.519 0 0 1-.049-.278l.05-2c-.01-.126.062-.225.21-.3.114-.053.183-.042.215.02zm1.802 1.14c-.09.096-.183.16-.27.207-.1.048-.163.034-.201-.04a.282.282 0 0 1-.024-.148c.002-.32.01-.607.013-.85l.013-.6.023-1.041-.896.44-.007.211c-.26-.1-.549-.07-.867.085-.436.21-.77.568-1.006 1.062a3.522 3.522 0 0 0-.314 1.36l-.005.325c-.008.434.039.753.139.96.194.396.639.426 1.328.086.3-.146.518-.36.664-.646.106.153.267.178.485.073.331-.16.646-.404.955-.72z"/><path id="p97fd" d="M1086.667 3851.073c0 .2-.07.3-.205.3h-3.025c-.144 0-.212-.1-.212-.3v-.766c0-.14.01-.231.04-.261.028-.03.087-.044.172-.044h3.025c.086 0 .142.014.166.044.026.03.039.121.039.261z"/><path id="p97fe" d="M1085.282 3847.644c-.079.159-.195.237-.343.237a.383.383 0 0 1-.344-.207c-.075-.14-.115-.371-.115-.7 0-.586.153-.88.459-.88.308 0 .46.302.46.908 0 .273-.04.49-.117.642m1.158-2.392c-.328-.42-.832-.63-1.501-.63-.655 0-1.153.21-1.486.637-.335.431-.502 1.002-.502 1.732 0 .357.036.686.106.98.07.293.187.54.347.742.162.206.369.36.62.473.255.112.558.167.915.167.682 0 1.188-.208 1.515-.626.322-.418.486-.995.486-1.736 0-.737-.169-1.315-.5-1.74"/><path id="p97ff" d="M1093.67 3835.628l-14.394 7.397a.734.734 0 0 0-.033.032c-.03.048-.042.135-.042.255v5.486h-.091l-.822-1.846-1.506-3.266a2.106 2.106 0 0 0-.217-.386.813.813 0 0 0-.225-.213.784.784 0 0 0-.277-.085 4.49 4.49 0 0 0-.372-.011h-.67c-.357 0-.603.08-.74.247-.131.165-.196.493-.196.975v9.328c0 .218.098.328.293.328h1.827c.145 0 .233-.023.264-.069a.543.543 0 0 0 .045-.259v-5.486h.088l.863 1.961 1.464 3.151c.078.168.15.297.22.393.067.089.142.16.222.206a.66.66 0 0 0 .277.087c.103.01.226.016.37.016h.671c.385 0 .635-.119.757-.351.122-.229.18-.527.18-.88v-8.09l13.188-6.778a14.52 14.52 0 0 0-1.144-2.142"/><path id="p97fg" d="M1093.635 3851.519c-.004-.008-.009-.008-.011-.01-.046-.03-.137-.041-.27-.041h-1.245v-7.964c0-.281-.05-.507-.142-.672a.83.83 0 0 0-.396-.362 1.433 1.433 0 0 0-.58-.108c-.215 0-.445.03-.68.103l-3.006.787c-.157.04-.25.11-.272.186-.02.078-.03.168-.03.268v1.546c0 .154.026.252.074.294.05.039.161.043.326.009l1.664-.303v6.216h-1.026c-.136 0-.223.011-.266.041-.048.025-.069.136-.069.328v1.677c0 .142.025.243.077.29.048.043.135.066.258.066h3.689a14.71 14.71 0 0 0 1.905-2.351"/><path id="p97fh" d="M1067.433 3839.098c.074-.24.155-.477.24-.71l4.092-2.026c.597-.294 1.004-.395 1.223-.3.191-.315.543-.597 1.056-.854.313-.154.614-.248.902-.284.367-.042.6.036.7.24a.556.556 0 0 1 .05.276l-.015.537c-.006.38-.129.772-.37 1.169a3.266 3.266 0 0 1-.88.97c.532-.11.891.021 1.081.407.07.137.1.302.097.493l-.012.493c-.012.616-.303 1.21-.866 1.784-.433.453-.974.833-1.61 1.142l-1.512.742.13-5.848a.146.146 0 0 0-.016-.068c-.028-.055-.09-.09-.185-.103a.4.4 0 0 0-.253.03l-3.852 1.91m5.743-.5c.71-.688 1.07-1.213 1.077-1.58l.026-.76a.4.4 0 0 0-.042-.187c-.09-.184-.266-.212-.526-.083-.318.156-.481.422-.484.787zm-.063 2.911a.223.223 0 0 0 .015.106c.027.048.072.059.147.023.09-.044.194-.138.31-.278.39-.477.589-.931.602-1.365l.01-.401a.592.592 0 0 0-.06-.294c-.129-.262-.45-.372-.969-.323z"/></defs><g><g transform="translate(-1067 -3831)"><use fill="#fff" xlink:href="#p97fa"/></g><g transform="translate(-1067 -3831)"><use fill="#fff" xlink:href="#p97fb"/></g><g transform="translate(-1067 -3831)"><use fill="#fff" xlink:href="#p97fc"/></g><g transform="translate(-1067 -3831)"><use fill="#fff" xlink:href="#p97fd"/></g><g transform="translate(-1067 -3831)"><use fill="#fff" xlink:href="#p97fe"/></g><g transform="translate(-1067 -3831)"><use fill="#fff" xlink:href="#p97ff"/></g><g transform="translate(-1067 -3831)"><use fill="#fff" xlink:href="#p97fg"/></g><g transform="translate(-1067 -3831)"><use fill="#fff" xlink:href="#p97fh"/></g></g></svg>
