<svg width="15" height="20" viewBox="0 0 15 20" fill="none" xmlns="http://www.w3.org/2000/svg">
<path d="M6.72917 19.6C1.05333 11.3683 0 10.5242 0 7.5C0 3.3575 3.3575 0 7.5 0C11.6425 0 15 3.3575 15 7.5C15 10.5242 13.9467 11.3667 8.27083 19.5967C8.18464 19.7208 8.06973 19.8223 7.93589 19.8925C7.80206 19.9627 7.65325 19.9995 7.50212 19.9998C7.35099 20.0001 7.20202 19.964 7.06788 19.8944C6.93374 19.8247 6.8184 19.7238 6.73167 19.6L6.73 19.5967L6.72917 19.6ZM7.5 10.625C8.3288 10.625 9.12366 10.2958 9.70971 9.70971C10.2958 9.12366 10.625 8.3288 10.625 7.5C10.625 6.6712 10.2958 5.87634 9.70971 5.29029C9.12366 4.70424 8.3288 4.375 7.5 4.375C6.6712 4.375 5.87634 4.70424 5.29029 5.29029C4.70424 5.87634 4.375 6.6712 4.375 7.5C4.375 8.3288 4.70424 9.12366 5.29029 9.70971C5.87634 10.2958 6.6712 10.625 7.5 10.625Z" fill="#C10010"/>
</svg>
