<svg xmlns="http://www.w3.org/2000/svg" width="40" height="54.146" viewBox="0 0 40 54.146">
  <g id="Group_65" data-name="Group 65" transform="translate(-866 -3822.854)">
    <path id="Path_73" data-name="Path 73" d="M-207.836,287.2c0,8.065-10.148,23.4-15.987,31.562a4.906,4.906,0,0,1-8.026,0c-5.839-8.158-15.987-23.5-15.987-31.562a20.254,20.254,0,0,1,20-20.5A20.254,20.254,0,0,1-207.836,287.2Z" transform="translate(1113.836 3556.155)" fill="#43a864"/>
    <circle id="Ellipse_53" data-name="Ellipse 53" cx="14" cy="14" r="14" transform="translate(872 3829)" fill="#fff"/>
    <path id="Subtraction_1" data-name="Subtraction 1" d="M2013.937,353.439a11.839,11.839,0,0,0-19.9-.011l-4.04-1.957a13.716,13.716,0,0,1,2.413-3.037,15.438,15.438,0,0,1,3.257-2.361,16.862,16.862,0,0,1,3.922-1.53,18.118,18.118,0,0,1,8.815,0,16.86,16.86,0,0,1,3.922,1.53,15.423,15.423,0,0,1,3.257,2.361,13.708,13.708,0,0,1,2.414,3.037l-4.063,1.968Z" transform="translate(-1118 3482)" fill="#fff" opacity="0.45"/>
    <path id="Subtraction_2" data-name="Subtraction 2" d="M2013.937,353.439a11.839,11.839,0,0,0-19.9-.011l-4.04-1.957a13.716,13.716,0,0,1,2.413-3.037,15.438,15.438,0,0,1,3.257-2.361,16.862,16.862,0,0,1,3.922-1.53,18.118,18.118,0,0,1,8.815,0,16.86,16.86,0,0,1,3.922,1.53,15.423,15.423,0,0,1,3.257,2.361,13.708,13.708,0,0,1,2.414,3.037l-4.063,1.968Z" transform="translate(2890.361 4204.439) rotate(180)" fill="#fff" opacity="0.45"/>
  </g>
</svg>
