<svg xmlns="http://www.w3.org/2000/svg" width="173" height="225.01" viewBox="0 0 173 225.01">
  <path id="Path_99" data-name="Path 99" d="M711.53,520.927c-5.75-19.2-15.079-38.385-28.6-53.845a137.949,137.949,0,0,0-48.083-36.452c-1.411-.607-2.805-1.189-4.2-1.747a76.351,76.351,0,0,0-2.272-16.088c-3.558-18.568-14.328-35.079-27.95-47.362-13.262-13.059-31.438-20.063-49.185-17.58,18.054-1.085,34.5,6.723,46.585,20.226C610.2,381,618.948,396.624,621.121,414.332a67,67,0,0,1,1.083,11.477,93.229,93.229,0,0,0-17.212-3.793c-10.7-.755-21.8.594-31.942,6.232-10.3,5.348-17.766,17.138-18.43,28.1-1.2,10.3.671,23.412,11.125,31.106a27.091,27.091,0,0,0,16.526,5.031,37.88,37.88,0,0,0,15.456-4.227,60.254,60.254,0,0,0,22.208-19.79,63.269,63.269,0,0,0,7.724-16.425,114.8,114.8,0,0,1,34.935,31.178c10.068,13.226,16.355,28.6,20.216,45.208l-12.617,3.3c12.5,10.876,23.9,25.619,34.844,40.636,7.5-17.023,14.847-34.4,19.209-54.766ZM610.922,461.944c-9.156,12.422-28.521,21.631-36.173,13.719-3.575-2.752-5-9.71-3.618-16.839,1.183-6.987,4.709-11.284,10.514-14.138,5.792-2.811,13.683-3.482,21.026-2.4a80.286,80.286,0,0,1,16,5.244A51.949,51.949,0,0,1,610.922,461.944Z" transform="translate(-551.246 -347.358)" fill="#e4e4e4"/>
</svg>
