<svg xmlns="http://www.w3.org/2000/svg" width="223" height="212" viewBox="0 0 223 212">
  <path id="Path_97" data-name="Path 97" d="M240.485,430.4a33.492,33.492,0,0,0-.958-5.573l-.347-1.3-.088-.327c.133.364-.228-.68-.212-.627l-.058-.149-.228-.6c-.316-.794-.6-1.6-.958-2.375a45.546,45.546,0,0,0-11.92-15.969c-9.845-8.383-21.007-12.344-31.748-14.836a132.607,132.607,0,0,0-32.246-2.927c-10.443.149-20.578,1-30.591,1.936l-3.734.371-.3.03-1.969-.014c-2.734-.037-5.276.041-7.638.046a77.634,77.634,0,0,1-12.568-.632c-7.452-1.366-8.923-3.788-10.047-7.213-1.168-3.611.058-12.813,2.986-18.31l12.655,5.847c-4.782-14.781-1.639-35.135,3.614-54.782-18.855,5.337-39.052,11.941-57.832,29.744l12.761,5.891-.823,2.1-.409,1.05-.2.526-.051.13c-.644,1.824-.2.588-.354,1.032l-.075.286c-.4,1.545-.845,3.041-1.161,4.63a73.517,73.517,0,0,0-1.511,9.708,52.961,52.961,0,0,0,2.318,21.718A38.1,38.1,0,0,0,81.5,409.068a43.242,43.242,0,0,0,10.288,4.865,54.974,54.974,0,0,0,9.764,1.861,101.477,101.477,0,0,0,16.86-.192c2.561-.183,4.953-.421,7.178-.547l1.672-.105.208-.011.051,0c.58-.041,1.887-.124,1.7-.114l.451-.076.9-.153,3.612-.613c9.593-1.577,19.125-3.023,28.481-3.806,18.074-1.664,37.683-.114,50.7,9.2,6.229,4.41,10.418,12.438,8.874,16.978-.971,4.877-9.81,9.591-18.4,11.06a58.373,58.373,0,0,1-6.665.92l-1.679.112a13.255,13.255,0,0,1-1.436-.025l-3.557-.126c-4.754-.288-9.534-.712-14.336-1.385-9.6-1.266-19.282-3.16-29.072-4.863-19.644-3.726-39.773-5.229-59.752-2.716C67.543,442.084,48.31,452.215,37.117,469c-12.748,15.834-17.154,36.053-19.507,55.99,3.694-19.88,9.275-39.081,22.628-53.5C51.8,456.57,69.808,448.748,88.176,447.446a93.524,93.524,0,0,1,13.871-.066c5.521.416,9.551.494,14.411,1.08a241.957,241.957,0,0,1,28.214,5.563c9.509,2.334,19.151,4.93,29.185,6.962,4.992,1.053,10.12,1.872,15.3,2.543l3.915.41a21.8,21.8,0,0,0,2.5.188l2.115.007a73.5,73.5,0,0,0,8.432-.572,55.778,55.778,0,0,0,17.147-4.8c5.621-2.694,12.307-7.467,15.568-15.912A27.561,27.561,0,0,0,240.485,430.4Z" transform="translate(-17.61 -312.994)" fill="#328a27" opacity="0.64"/>
</svg>
