<svg xmlns="http://www.w3.org/2000/svg" xmlns:xlink="http://www.w3.org/1999/xlink" width="10" height="17" viewBox="0 0 10 17"><defs><path id="2t26a" d="M1245.07 3872.17c-.368.267-.704.507-1.034.755-.041.03-.063.103-.072.16-.099.608-.193 1.217-.289 1.826-.036.228-.065.459-.11.686-.08.401-.482.685-.866.622-.47-.078-.756-.454-.683-.929.15-.972.311-1.942.467-2.913a.752.752 0 0 1 .314-.505c.783-.57 1.565-1.141 2.352-1.706.31-.223.645-.403 1.029-.458.874-.125 1.708.389 2.022 1.233.15.403.122.81.056 1.222-.192 1.188-.379 2.378-.567 3.567-.037.234-.062.472-.114.703-.027.122.01.203.075.293 1.156 1.597 2.31 3.194 3.463 4.792.422.585.186 1.334-.48 1.534-.404.12-.81-.033-1.082-.41l-3.322-4.6c-.425-.588-.837-1.185-1.277-1.76-.331-.434-.406-.899-.314-1.424.154-.879.284-1.762.431-2.688z"/><path id="2t26b" d="M1247.253 3869.139a1.575 1.575 0 0 1-1.566-1.588c.01-.872.73-1.561 1.62-1.55.84.009 1.545.74 1.532 1.588a1.577 1.577 0 0 1-1.586 1.55z"/><path id="2t26c" d="M1245.882 3878.738c.322.446.631.87.937 1.297.252.35.25.35-.003.699-.466.641-.929 1.285-1.393 1.927-.246.34-.58.486-.991.408-.368-.07-.615-.3-.73-.66a.885.885 0 0 1 .117-.81c.677-.949 1.363-1.892 2.063-2.86z"/><path id="2t26d" d="M1248.862 3872.816l.714.979c.342.471.688.94 1.025 1.415.341.48.129 1.095-.424 1.246a.775.775 0 0 1-.828-.294c-.267-.358-.529-.72-.787-1.085a.259.259 0 0 1-.048-.17c.101-.664.209-1.328.315-1.991.004-.022.014-.043.033-.1z"/></defs><g><g transform="translate(-1242 -3866)"><g><use fill="#707070" xlink:href="#2t26a"/></g><g><use fill="#707070" xlink:href="#2t26b"/></g><g><use fill="#707070" xlink:href="#2t26c"/></g><g><use fill="#707070" xlink:href="#2t26d"/></g></g></g></svg>
