<svg width="71" height="71" viewBox="0 0 71 71" fill="none" xmlns="http://www.w3.org/2000/svg">
<g clip-path="url(#clip0)">
<rect x="-71" y="-0.289322" width="100" height="100" transform="rotate(-45 -71 -0.289322)" fill="#C10010"/>
<path d="M14.1662 42.2405C14.8687 43.0526 15.1845 43.9291 15.1136 44.8701C15.0459 45.8078 14.5996 46.6892 13.7747 47.5141C12.8724 48.4164 11.8589 48.8241 10.7342 48.7371C9.60959 48.6436 8.51716 48.0668 7.45696 47.0066L7.02676 46.5764C6.35004 45.8997 5.87311 45.1843 5.59597 44.4302C5.31884 43.6762 5.26406 42.9414 5.43163 42.226C5.5992 41.5042 5.97623 40.85 6.56272 40.2635C7.37479 39.4515 8.24647 39.0148 9.17777 38.9536C10.1091 38.8924 11.0065 39.2162 11.8702 39.9252L10.42 41.3753C9.93022 40.9564 9.47424 40.755 9.05209 40.7711C8.62995 40.7808 8.19652 41.0079 7.75182 41.4526C7.26845 41.936 7.07993 42.4726 7.18627 43.0623C7.29261 43.6455 7.7067 44.3045 8.42854 45.0393L8.96025 45.571C9.72076 46.3315 10.391 46.773 10.9711 46.8954C11.5544 47.0147 12.0941 46.8261 12.5904 46.3299C13.0383 45.882 13.2703 45.4469 13.2864 45.0248C13.3026 44.5962 13.1124 44.1515 12.7161 43.6907L14.1662 42.2405ZM16.8828 38.4606L16.0465 39.2968L18.9226 42.1729L17.4725 43.623L10.4345 36.5851L11.8847 35.1349L14.7027 37.953L15.365 37.2908L14.2677 32.7519L16.0368 30.9828L17.1969 36.4836L23.302 37.7935L21.5715 39.524L16.8828 38.4606ZM21.0446 25.975L22.4996 24.5201L29.5375 31.558L28.0825 33.0129L23.4083 28.3387L25.2645 35.831L23.8143 37.2811L16.7764 30.2432L18.2265 28.7931L22.9104 33.477L21.0446 25.975ZM39.1566 25.3998L37.8177 26.7387L36.0872 25.0083L31.8432 29.2523L33.5688 30.9779L32.196 32.3507L29.2281 29.5375L29.7598 29.0058C29.8082 28.4805 29.6793 27.9101 29.3731 27.2946C29.067 26.6727 28.5997 25.9927 27.9713 25.2548L25.0711 21.9485L29.6825 17.3371L35.5555 23.2101L36.3772 22.3884L39.1566 25.3998ZM31.4226 27.343L34.1054 24.6602L29.407 19.9618L27.6233 21.7455L29.3538 23.7177C30.4978 25.055 31.1874 26.2634 31.4226 27.343ZM37.7258 17.6175L36.8896 18.4537L39.7657 21.3298L38.3155 22.7799L31.2776 15.742L32.7277 14.2919L35.5458 17.1099L36.208 16.4477L35.1108 11.9088L36.8799 10.1397L38.04 15.6405L44.145 16.9504L42.4146 18.6809L37.7258 17.6175ZM47.229 10.9663L44.6864 13.5088L45.6532 15.4423L44.1112 16.9843L39.6932 7.32645L41.0369 5.98267L50.7092 10.3862L49.1673 11.9282L47.229 10.9663ZM43.9033 11.9427L45.6628 10.1832L42.1439 8.43338L43.9033 11.9427Z" fill="white"/>
</g>
<defs>
<clipPath id="clip0">
<path d="M0 0H70.71V70.71H0V0Z" fill="white"/>
</clipPath>
</defs>
</svg>
