<svg width="20" height="20" viewBox="0 0 20 20" fill="none" xmlns="http://www.w3.org/2000/svg">
<path d="M2.5 4C2.20333 4 1.91332 4.09474 1.66665 4.27224C1.41997 4.44974 1.22771 4.70203 1.11418 4.9972C1.00065 5.29238 0.970945 5.61718 1.02882 5.93053C1.0867 6.24388 1.22956 6.53172 1.43934 6.75763C1.64912 6.98355 1.91639 7.1374 2.20737 7.19973C2.49834 7.26206 2.79994 7.23007 3.07403 7.10781C3.34811 6.98554 3.58238 6.77849 3.74721 6.51284C3.91203 6.2472 4 5.93488 4 5.61538C4 5.18696 3.84197 4.77608 3.56066 4.47314C3.27936 4.17019 2.89783 4 2.5 4ZM2.5 9.38461C2.20333 9.38461 1.91332 9.47936 1.66665 9.65686C1.41997 9.83436 1.22771 10.0866 1.11418 10.3818C1.00065 10.677 0.970945 11.0018 1.02882 11.3151C1.0867 11.6285 1.22956 11.9163 1.43934 12.1422C1.64912 12.3682 1.91639 12.522 2.20737 12.5843C2.49834 12.6467 2.79994 12.6147 3.07403 12.4924C3.34811 12.3702 3.58238 12.1631 3.74721 11.8975C3.91203 11.6318 4 11.3195 4 11C4 10.5716 3.84197 10.1607 3.56066 9.85775C3.27936 9.55481 2.89783 9.38461 2.5 9.38461ZM2.5 14.7692C2.20333 14.7692 1.91332 14.864 1.66665 15.0415C1.41997 15.219 1.22771 15.4713 1.11418 15.7664C1.00065 16.0616 0.970945 16.3864 1.02882 16.6998C1.0867 17.0131 1.22956 17.3009 1.43934 17.5269C1.64912 17.7528 1.91639 17.9066 2.20737 17.969C2.49834 18.0313 2.79994 17.9993 3.07403 17.877C3.34811 17.7548 3.58238 17.5477 3.74721 17.2821C3.91203 17.0164 4 16.7041 4 16.3846C4 15.9562 3.84197 15.5453 3.56066 15.2424C3.27936 14.9394 2.89783 14.7692 2.5 14.7692ZM16.5 15.3077H6.5C6.36739 15.3077 6.24022 15.3644 6.14645 15.4654C6.05268 15.5664 6 15.7033 6 15.8462V16.9231C6 17.0659 6.05268 17.2028 6.14645 17.3038C6.24022 17.4048 6.36739 17.4615 6.5 17.4615H16.5C16.6326 17.4615 16.7598 17.4048 16.8536 17.3038C16.9473 17.2028 17 17.0659 17 16.9231V15.8462C17 15.7033 16.9473 15.5664 16.8536 15.4654C16.7598 15.3644 16.6326 15.3077 16.5 15.3077ZM16.5 4.53846H6.5C6.36739 4.53846 6.24022 4.59519 6.14645 4.69617C6.05268 4.79715 6 4.93411 6 5.07692V6.15385C6 6.29665 6.05268 6.43361 6.14645 6.5346C6.24022 6.63558 6.36739 6.69231 6.5 6.69231H16.5C16.6326 6.69231 16.7598 6.63558 16.8536 6.5346C16.9473 6.43361 17 6.29665 17 6.15385V5.07692C17 4.93411 16.9473 4.79715 16.8536 4.69617C16.7598 4.59519 16.6326 4.53846 16.5 4.53846ZM16.5 9.92308H6.5C6.36739 9.92308 6.24022 9.97981 6.14645 10.0808C6.05268 10.1818 6 10.3187 6 10.4615V11.5385C6 11.6813 6.05268 11.8182 6.14645 11.9192C6.24022 12.0202 6.36739 12.0769 6.5 12.0769H16.5C16.6326 12.0769 16.7598 12.0202 16.8536 11.9192C16.9473 11.8182 17 11.6813 17 11.5385V10.4615C17 10.3187 16.9473 10.1818 16.8536 10.0808C16.7598 9.97981 16.6326 9.92308 16.5 9.92308Z" fill="#707070"/>
</svg>
