<svg width="20" height="21" viewBox="0 0 20 21" fill="none" xmlns="http://www.w3.org/2000/svg">
<path d="M15.8333 5.5C15.6123 5.5 15.4004 5.5878 15.2441 5.74408C15.0878 5.90036 15 6.11232 15 6.33333V9.66667C15 9.88768 14.9122 10.0996 14.7559 10.2559C14.5996 10.4122 14.3877 10.5 14.1667 10.5H6.17501L7.25834 9.425C7.41526 9.26808 7.50342 9.05525 7.50342 8.83333C7.50342 8.61142 7.41526 8.39859 7.25834 8.24167C7.10142 8.08475 6.88859 7.99659 6.66667 7.99659C6.44475 7.99659 6.23193 8.08475 6.07501 8.24167L3.57501 10.7417C3.49914 10.8209 3.43967 10.9144 3.40001 11.0167C3.31666 11.2196 3.31666 11.4471 3.40001 11.65C3.43967 11.7523 3.49914 11.8457 3.57501 11.925L6.07501 14.425C6.15247 14.5031 6.24464 14.5651 6.34619 14.6074C6.44774 14.6497 6.55666 14.6715 6.66667 14.6715C6.77668 14.6715 6.8856 14.6497 6.98715 14.6074C7.0887 14.5651 7.18087 14.5031 7.25834 14.425C7.33645 14.3475 7.39844 14.2554 7.44075 14.1538C7.48306 14.0523 7.50484 13.9433 7.50484 13.8333C7.50484 13.7233 7.48306 13.6144 7.44075 13.5129C7.39844 13.4113 7.33645 13.3191 7.25834 13.2417L6.17501 12.1667H14.1667C14.8297 12.1667 15.4656 11.9033 15.9344 11.4344C16.4033 10.9656 16.6667 10.3297 16.6667 9.66667V6.33333C16.6667 6.11232 16.5789 5.90036 16.4226 5.74408C16.2663 5.5878 16.0544 5.5 15.8333 5.5Z" fill="#328A27"/>
</svg>
