<svg xmlns="http://www.w3.org/2000/svg" xmlns:xlink="http://www.w3.org/1999/xlink" width="285" height="66" viewBox="0 0 285 66"><defs><path id="ia38a" d="M334.892 4276.702h6.338l-1.057-4.815-1.776-8.893h-.447l-1.89 9.072zm8.62 9.135h-10.958l-1.83 7.106c-.149.455-.326.8-.53 1.028-.203.227-.62.337-1.254.337h-8.168c-.37 0-.604-.11-.694-.337-.094-.229-.102-.511-.028-.84l10.953-38.239c.477-1.639 1.073-2.698 1.776-3.177.705-.47 1.685-.704 2.947-.704h4.507c.66 0 1.246.023 1.748.085a3.06 3.06 0 0 1 1.329.464c.393.25.746.634 1.06 1.152.313.51.6 1.215.863 2.124l10.947 38.294c.075.204.088.456.032.746-.058.283-.301.432-.753.432h-8.39c-.444 0-.816-.063-1.114-.181-.298-.133-.499-.424-.613-.871z"/><path id="ia38b" d="M393.118 4293.007c0 .5-.07.83-.196 1.018-.128.189-.51.283-1.137.283h-7.897c-.85 0-1.274-.446-1.274-1.301v-31.934H370.27v31.934c0 .5-.062.83-.192 1.018-.133.189-.513.283-1.136.283h-7.901c-.853 0-1.28-.446-1.28-1.301v-37.863c0-1.358.224-2.377.668-3.06.447-.682 1.427-1.018 2.949-1.018h26.126c1.52 0 2.506.336 2.949 1.019.443.682.666 1.7.666 3.059z"/><path id="ia38c" d="M427.048 4260.891h-9.506v32.115c0 .501-.066.83-.19 1.018-.134.19-.515.284-1.143.284h-7.893c-.855 0-1.277-.446-1.277-1.302v-32.115h-9.287c-.776 0-1.168-.478-1.168-1.42v-6.916c0-.706.086-1.13.251-1.28.162-.131.47-.21.917-.21h29.296c.447 0 .752.079.918.21.164.15.252.574.252 1.28v6.916c0 .942-.386 1.42-1.17 1.42"/><path id="ia38d" d="M458.386 4294.308h-17.179c-2.219 0-4.026-.362-5.419-1.052-1.389-.698-2.481-1.615-3.275-2.752a10.115 10.115 0 0 1-1.642-3.795 19.848 19.848 0 0 1-.447-4.14v-19.764c0-1.49.185-2.932.556-4.36.37-1.42.973-2.675 1.805-3.764.835-1.091 1.94-1.97 3.31-2.627 1.37-.66 3.039-.989 5.003-.989H457.5c.443 0 .733.079.858.21.134.15.197.573.197 1.28v6.964c0 .549-.074.901-.224 1.098-.15.18-.427.274-.831.274h-13.23c-.745 0-1.337.118-1.78.337-.449.22-.78.504-1.004.832a2.97 2.97 0 0 0-.448 1.114 7.47 7.47 0 0 0-.109 1.23v2.604h14.9c.448 0 .734.08.863.244.13.172.196.595.196 1.294v6.423c0 .95-.353 1.419-1.059 1.419h-14.9v4.636c0 .783.086 1.403.254 1.85.165.455.397.792.694 1.02.296.234.649.375 1.056.438.408.055.851.086 1.338.086h14.115c.446 0 .734.079.862.22.134.15.198.565.198 1.27v6.98c0 .948-.354 1.42-1.06 1.42"/><path id="ia38e" d="M488.818 4271.33c.96.369 1.757.791 2.388 1.262a6.906 6.906 0 0 1 1.56 1.607 7.76 7.76 0 0 1 .97 2.032c.239.776.474 1.608.694 2.51l3.446 14.328c.075.212.087.47.027.767-.054.323-.326.472-.804.472h-8.34a1.66 1.66 0 0 1-.608-.126c-.223-.086-.392-.33-.501-.745l-3.502-12.964c-.258-.996-.584-1.803-.976-2.439-.388-.643-.852-1.136-1.388-1.497a5.066 5.066 0 0 0-1.918-.697c-.74-.134-1.596-.19-2.557-.19h-2.505l.058 17.67c0 .454-.075.73-.223.839-.15.094-.41.15-.78.15h-8.553c-.337 0-.584-.056-.756-.15-.165-.11-.247-.385-.247-.84v-41.265c0-.455.082-.73.247-.832.172-.102.42-.157.756-.157h8.607c.374 0 .632.055.782.157.148.101.187.377.109.832v15.316h2.67c.553 0 1.145-.033 1.752-.118a4.423 4.423 0 0 0 1.749-.644c.557-.36 1.066-.869 1.534-1.552.46-.675.843-1.616 1.138-2.808l2.56-10.438c.07-.416.231-.652.47-.745.239-.079.454-.125.64-.125h8.226c.482 0 .753.165.808.462.05.314.042.572-.028.776l-2.67 11.058c-.373 1.726-.973 3.262-1.804 4.604-.835 1.34-1.847 2.391-3.031 3.184z"/><path id="ia38f" d="M515.113 4276.702h6.334l-1.054-4.815-1.782-8.893h-.442l-1.895 9.072zm8.612 9.135h-10.949l-1.835 7.106c-.149.455-.325.8-.525 1.028-.204.227-.624.337-1.255.337h-8.172c-.372 0-.6-.11-.69-.337-.093-.229-.106-.511-.027-.84l10.944-38.239c.487-1.639 1.079-2.698 1.783-3.177.704-.47 1.687-.704 2.942-.704h4.506c.666 0 1.253.023 1.753.085.501.062.944.213 1.335.464.385.25.738.634 1.048 1.152.322.51.608 1.215.866 2.124l10.952 38.294c.075.204.082.456.028.746-.055.283-.306.432-.745.432h-8.4c-.438 0-.815-.063-1.11-.181-.297-.133-.5-.424-.614-.871z"/><path id="ia38g" d="M572.47 4240.098c-16.638 0-32.537 13.545-32.356 31.63.2 20.06 19.024 31.68 37.49 29.593.19-.026.369-.073.55-.102v.02c-.176.02-.362.056-.55.082-10.794 1.204-21.108-1.584-29.486-7.189 5.961 6.748 14.65 11.017 24.351 11.017 17.97 0 32.531-14.56 32.531-32.523 0-17.972-14.561-32.528-32.53-32.528"/><path id="ia38h" d="M584.818 4248.271l-.096 4.575c-.015.603-.176.976-.476 1.124-.177.08-.307.03-.391-.133-.087-.174-.12-.378-.113-.623l.108-4.443c-.011-.285.145-.505.482-.673.245-.117.403-.112.477.036zm4.018 2.543c-.203.205-.41.358-.609.46-.21.107-.361.077-.44-.081a.694.694 0 0 1-.062-.338c.013-.725.02-1.348.039-1.89.012-.54.023-.984.023-1.337l.05-2.323-1.997.986-.015.47c-.571-.226-1.218-.169-1.932.183-.968.48-1.711 1.266-2.23 2.369a7.47 7.47 0 0 0-.697 3.028l-.02.725c-.016.96.093 1.675.317 2.135.436.882 1.417.944 2.949.193.667-.332 1.161-.807 1.48-1.445.243.347.598.404 1.084.173.725-.367 1.437-.908 2.116-1.608z"/><path id="ia38i" d="M580.61 4254.848c-.21.199-.41.358-.606.459-.217.107-.367.083-.443-.081a.698.698 0 0 1-.058-.348l.122-4.63-3.116.019h-.022l-.146 6.853c-.007.342-.175.602-.491.756-.202.096-.338.08-.404-.057-.012-.02-.028-.092-.054-.204l.076-3.481-3.114-.026-.098 5.024c-.015.342-.18.592-.514.761-.187.086-.315.071-.384-.073a.872.872 0 0 1-.042-.198l.111-5.535-2.958-.036-.09 4.647-.015.005-.01.975c-.008.643.092 1.184.311 1.634.444.903 1.174 1.102 2.18.607 1.052-.505 1.787-1.22 2.219-2.139.493.464 1.123.51 1.869.138 1.002-.486 1.686-1.119 2.039-1.9.205.168.442.27.725.302.276.03.554-.02.845-.17.736-.35 1.448-.893 2.126-1.608z"/><path id="ia38j" d="M564.133 4258.421l-.105 4.581c-.01.592-.165.96-.471 1.118-.179.087-.301.04-.39-.138a1.155 1.155 0 0 1-.11-.618l.11-4.452c-.022-.28.14-.5.47-.668.252-.118.407-.094.478.044zm4.011 2.54a2.286 2.286 0 0 1-.603.458c-.22.108-.361.077-.446-.087a.627.627 0 0 1-.054-.33c.006-.711.024-1.35.03-1.891.011-.531.024-.98.029-1.338l.051-2.317-1.996.98-.015.47c-.578-.22-1.22-.154-1.928.19-.972.468-1.714 1.264-2.241 2.362a7.842 7.842 0 0 0-.698 3.028l-.012.725c-.017.965.086 1.674.309 2.134.432.884 1.422.95 2.956.194a3.148 3.148 0 0 0 1.479-1.44c.237.342.594.398 1.08.163.737-.357 1.439-.898 2.126-1.602z"/><path id="ia38k" d="M584.225 4289.378c0 .444-.156.668-.458.668h-6.733c-.32 0-.472-.224-.472-.668v-1.706c0-.311.023-.515.09-.582.063-.065.192-.097.382-.097h6.733c.193 0 .318.032.37.097.06.067.088.27.088.582z"/><path id="ia38l" d="M581.14 4281.745c-.174.352-.433.526-.762.526-.327 0-.59-.158-.766-.46-.166-.311-.255-.826-.255-1.557 0-1.307.34-1.961 1.02-1.961.687 0 1.026.674 1.026 2.023 0 .607-.092 1.092-.262 1.429m2.578-5.326c-.73-.934-1.851-1.404-3.341-1.404-1.458 0-2.566.47-3.309 1.42-.746.96-1.116 2.231-1.116 3.855 0 .796.079 1.527.235 2.18.155.654.417 1.206.774 1.654.36.46.82.803 1.378 1.052.568.25 1.244.373 2.038.373 1.518 0 2.645-.465 3.371-1.394.718-.93 1.082-2.215 1.082-3.865 0-1.64-.374-2.926-1.112-3.871"/><path id="ia38m" d="M599.813 4254.997l-32.041 16.465a1.65 1.65 0 0 0-.074.072c-.065.106-.094.3-.094.567v12.212h-.202l-1.83-4.11-3.351-7.27a4.695 4.695 0 0 0-.485-.858 1.809 1.809 0 0 0-.5-.476 1.744 1.744 0 0 0-.615-.188 9.987 9.987 0 0 0-.83-.026h-1.49c-.797 0-1.343.18-1.647.551-.294.368-.437 1.099-.437 2.17v20.766c0 .485.217.73.652.73h4.066c.324 0 .518-.051.588-.154.065-.111.1-.3.1-.576v-12.213h.196l1.922 4.366 3.26 7.014c.173.373.332.66.49.874.148.198.313.357.492.459.184.107.392.174.617.194.228.02.502.036.826.036h1.491c.858 0 1.414-.265 1.685-.782.272-.51.4-1.174.4-1.96v-18.008l29.358-15.088a32.327 32.327 0 0 0-2.547-4.767"/><path id="ia38n" d="M599.736 4290.37c-.01-.017-.02-.017-.025-.022-.102-.066-.305-.092-.602-.092h-2.77v-17.727c0-.627-.11-1.128-.317-1.496a1.849 1.849 0 0 0-.88-.807c-.374-.163-.8-.24-1.293-.24-.479 0-.99.067-1.514.23l-6.69 1.752c-.35.09-.555.245-.606.414a2.45 2.45 0 0 0-.067.596v3.44c0 .344.058.563.166.656.11.086.358.096.726.02l3.704-.675v13.837h-2.284c-.303 0-.498.026-.594.092-.107.056-.152.302-.152.73v3.732c0 .317.056.542.17.645.109.096.302.147.576.147h8.21a32.747 32.747 0 0 0 4.242-5.233"/><path id="ia38o" d="M541.408 4262.72c.166-.535.345-1.06.534-1.582l9.11-4.508c1.329-.654 2.235-.88 2.722-.67.426-.698 1.21-1.326 2.351-1.898.697-.343 1.366-.552 2.008-.634.817-.092 1.336.082 1.557.536.084.174.122.367.112.613l-.033 1.195c-.014.848-.287 1.72-.824 2.602a7.27 7.27 0 0 1-1.959 2.162c1.185-.245 1.984.046 2.407.904.156.305.224.673.217 1.098l-.028 1.097c-.026 1.372-.674 2.696-1.928 3.972-.964 1.007-2.167 1.854-3.581 2.542l-3.369 1.65.292-13.015a.325.325 0 0 0-.038-.152c-.061-.123-.2-.2-.41-.231a.889.889 0 0 0-.564.067l-8.576 4.253m12.785-1.113c1.583-1.533 2.382-2.701 2.397-3.519l.058-1.689a.89.89 0 0 0-.093-.419c-.2-.408-.593-.47-1.172-.184-.707.348-1.07.94-1.077 1.752zm-.14 6.48a.496.496 0 0 0 .032.235c.06.107.162.131.327.05.202-.097.433-.307.693-.618.867-1.062 1.309-2.073 1.34-3.037l.021-.895a1.317 1.317 0 0 0-.134-.653c-.286-.582-1-.827-2.156-.72z"/></defs><g><g transform="translate(-320 -4240)"><g><use fill="#fff" xlink:href="#ia38a"/></g><g><use fill="#fff" xlink:href="#ia38b"/></g><g><use fill="#fff" xlink:href="#ia38c"/></g><g><use fill="#fff" xlink:href="#ia38d"/></g><g><use fill="#fff" xlink:href="#ia38e"/></g><g><use fill="#fff" xlink:href="#ia38f"/></g><g><use fill="#fff" xlink:href="#ia38g"/></g><g><use fill="#e4e4e4" xlink:href="#ia38h"/></g><g><use fill="#e4e4e4" xlink:href="#ia38i"/></g><g><use fill="#e4e4e4" xlink:href="#ia38j"/></g><g><use fill="#e4e4e4" xlink:href="#ia38k"/></g><g><use fill="#e4e4e4" xlink:href="#ia38l"/></g><g><use fill="#e4e4e4" xlink:href="#ia38m"/></g><g><use fill="#e4e4e4" xlink:href="#ia38n"/></g><g><use fill="#e4e4e4" xlink:href="#ia38o"/></g></g></g></svg>
