<svg width="22" height="22" viewBox="0 0 22 22" fill="none" xmlns="http://www.w3.org/2000/svg">
<circle cx="11" cy="11" r="10.5" fill="#D0E8AD" stroke="white"/>
<g clip-path="url(#clip0_302_9)">
<path fill-rule="evenodd" clip-rule="evenodd" d="M17.6792 7.46975C17.776 7.15125 17.6792 6.91675 17.2154 6.91675H15.6842C15.2945 6.91675 15.1148 7.11916 15.0174 7.34258C15.0174 7.34258 14.2387 9.20692 13.1356 10.4179C12.7786 10.7691 12.6164 10.8805 12.4216 10.8805C12.3242 10.8805 12.1777 10.7691 12.1777 10.45V7.46975C12.1777 7.08708 12.0704 6.91675 11.7461 6.91675H9.33808C9.09483 6.91675 8.94842 7.09408 8.94842 7.26266C8.94842 7.62491 9.50025 7.70891 9.55683 8.72858V10.9441C9.55683 11.43 9.46758 11.5181 9.27275 11.5181C8.75358 11.5181 7.49067 9.645 6.74108 7.50183C6.59583 7.08475 6.44883 6.91675 6.05742 6.91675H4.525C4.0875 6.91675 4 7.11916 4 7.34258C4 7.74041 4.51917 9.71675 6.41792 12.3307C7.68375 14.1157 9.46583 15.0834 11.0892 15.0834C12.0628 15.0834 12.183 14.8687 12.183 14.4983V13.1491C12.183 12.7192 12.2752 12.6334 12.5837 12.6334C12.8112 12.6334 13.2003 12.7454 14.1092 13.6058C15.1475 14.6261 15.3184 15.0834 15.9029 15.0834H17.4342C17.8717 15.0834 18.091 14.8687 17.965 14.4441C17.8262 14.0217 17.3303 13.4087 16.6729 12.6812C16.3159 12.2671 15.7804 11.8208 15.6177 11.5974C15.3907 11.311 15.4555 11.1832 15.6177 10.9283C15.6177 10.9283 17.4843 8.3465 17.6786 7.46975H17.6792Z" fill="white"/>
</g>
<defs>
<clipPath id="clip0_302_9">
<rect width="14" height="14" fill="white" transform="translate(4 4)"/>
</clipPath>
</defs>
</svg>
