<svg width="22" height="22" viewBox="0 0 22 22" fill="none" xmlns="http://www.w3.org/2000/svg">
<circle cx="11" cy="11" r="10.5" fill="#D0E8AD" stroke="white"/>
<path fill-rule="evenodd" clip-rule="evenodd" d="M8.11409 4.042C8.86055 4.00764 9.09855 4 11 4C12.9015 4 13.1395 4.00827 13.8853 4.042C14.6311 4.07573 15.1402 4.19473 15.5856 4.36718C16.0521 4.54345 16.4753 4.819 16.8253 5.17536C17.1816 5.52473 17.4565 5.94727 17.6322 6.41436C17.8053 6.85982 17.9236 7.36891 17.958 8.11345C17.9924 8.86118 18 9.09918 18 11C18 12.9015 17.9917 13.1395 17.958 13.8859C17.9243 14.6305 17.8053 15.1395 17.6322 15.585C17.4565 16.0522 17.1812 16.4754 16.8253 16.8253C16.4753 17.1816 16.0521 17.4565 15.5856 17.6322C15.1402 17.8053 14.6311 17.9236 13.8865 17.958C13.1395 17.9924 12.9015 18 11 18C9.09855 18 8.86055 17.9917 8.11409 17.958C7.36955 17.9243 6.86045 17.8053 6.415 17.6322C5.94786 17.4565 5.52461 17.1812 5.17473 16.8253C4.81861 16.4757 4.54302 16.0527 4.36718 15.5856C4.19473 15.1402 4.07636 14.6311 4.042 13.8865C4.00764 13.1388 4 12.9008 4 11C4 9.09855 4.00827 8.86055 4.042 8.11473C4.07573 7.36891 4.19473 6.85982 4.36718 6.41436C4.54328 5.94732 4.81908 5.52429 5.17536 5.17473C5.52475 4.81868 5.94757 4.5431 6.41436 4.36718C6.85982 4.19473 7.36891 4.07636 8.11345 4.042H8.11409ZM13.8286 5.302C13.0905 5.26827 12.869 5.26127 11 5.26127C9.131 5.26127 8.90955 5.26827 8.17136 5.302C7.48855 5.33318 7.11818 5.44709 6.87127 5.54318C6.54482 5.67045 6.31127 5.82127 6.06627 6.06627C5.83403 6.29221 5.6553 6.56727 5.54318 6.87127C5.44709 7.11818 5.33318 7.48855 5.302 8.17136C5.26827 8.90955 5.26127 9.131 5.26127 11C5.26127 12.869 5.26827 13.0905 5.302 13.8286C5.33318 14.5115 5.44709 14.8818 5.54318 15.1287C5.65518 15.4323 5.834 15.7078 6.06627 15.9337C6.29218 16.166 6.56773 16.3448 6.87127 16.4568C7.11818 16.5529 7.48855 16.6668 8.17136 16.698C8.90955 16.7317 9.13036 16.7387 11 16.7387C12.8696 16.7387 13.0905 16.7317 13.8286 16.698C14.5115 16.6668 14.8818 16.5529 15.1287 16.4568C15.4552 16.3295 15.6887 16.1787 15.9337 15.9337C16.166 15.7078 16.3448 15.4323 16.4568 15.1287C16.5529 14.8818 16.6668 14.5115 16.698 13.8286C16.7317 13.0905 16.7387 12.869 16.7387 11C16.7387 9.131 16.7317 8.90955 16.698 8.17136C16.6668 7.48855 16.5529 7.11818 16.4568 6.87127C16.3295 6.54482 16.1787 6.31127 15.9337 6.06627C15.7078 5.83405 15.4327 5.65532 15.1287 5.54318C14.8818 5.44709 14.5115 5.33318 13.8286 5.302V5.302ZM10.1059 13.1579C10.6052 13.3658 11.1612 13.3938 11.679 13.2373C12.1967 13.0807 12.644 12.7493 12.9445 12.2996C13.245 11.8499 13.38 11.3098 13.3266 10.7716C13.2731 10.2334 13.0345 9.73044 12.6514 9.34864C12.4072 9.10458 12.1119 8.9177 11.7868 8.80146C11.4617 8.68522 11.1148 8.6425 10.7712 8.67639C10.4276 8.71028 10.0958 8.81993 9.79969 8.99745C9.50356 9.17496 9.25047 9.41593 9.05865 9.703C8.86682 9.99006 8.74103 10.3161 8.69033 10.6576C8.63963 10.9991 8.66528 11.3476 8.76543 11.6781C8.86559 12.0085 9.03776 12.3126 9.26955 12.5685C9.50134 12.8243 9.78698 13.0257 10.1059 13.1579ZM8.45582 8.45582C8.78992 8.12171 9.18657 7.85668 9.6231 7.67587C10.0596 7.49505 10.5275 7.40198 11 7.40198C11.4725 7.40198 11.9404 7.49505 12.3769 7.67587C12.8134 7.85668 13.2101 8.12171 13.5442 8.45582C13.8783 8.78992 14.1433 9.18657 14.3241 9.6231C14.505 10.0596 14.598 10.5275 14.598 11C14.598 11.4725 14.505 11.9404 14.3241 12.3769C14.1433 12.8134 13.8783 13.2101 13.5442 13.5442C12.8694 14.2189 11.9543 14.598 11 14.598C10.0457 14.598 9.13058 14.2189 8.45582 13.5442C7.78106 12.8694 7.40198 11.9543 7.40198 11C7.40198 10.0457 7.78106 9.13058 8.45582 8.45582V8.45582ZM15.396 7.93782C15.4788 7.85972 15.5451 7.7658 15.5909 7.66162C15.6368 7.55744 15.6612 7.44513 15.6629 7.33132C15.6646 7.21751 15.6434 7.10453 15.6006 6.99906C15.5578 6.89359 15.4943 6.79778 15.4138 6.7173C15.3333 6.63682 15.2375 6.5733 15.132 6.53051C15.0266 6.48772 14.9136 6.46653 14.7998 6.46819C14.686 6.46985 14.5736 6.49433 14.4695 6.54017C14.3653 6.58602 14.2714 6.6523 14.1933 6.73509C14.0414 6.89611 13.9582 7.10999 13.9614 7.33132C13.9647 7.55265 14.054 7.76401 14.2106 7.92054C14.3671 8.07706 14.5784 8.16642 14.7998 8.16964C15.0211 8.17287 15.235 8.08971 15.396 7.93782V7.93782Z" fill="white"/>
</svg>
