<svg width="169" height="44" viewBox="0 0 169 44" fill="none" xmlns="http://www.w3.org/2000/svg">
<path d="M100.34 10.6567V15.6854H93.9802V26.092C93.9802 28.746 95.2522 29.7937 97.863 29.7937C98.6664 29.7937 99.7375 29.5842 100.541 29.0953V34.124C99.6036 34.8922 97.7292 35.3113 96.0555 35.3113C90.6998 35.3113 87.9551 32.308 87.9551 27.419V15.7552H84.8086V14.4282L92.1726 5.48828H93.9802V10.7964H100.34V10.6567Z" fill="#8BBD3F"/>
<path d="M81.7978 17.1523C80.0572 15.8253 77.8479 15.3364 76.1743 15.3364C73.7642 15.3364 72.6262 16.1046 72.6262 17.4317C72.6262 18.4095 73.0278 18.8984 74.8354 19.5968L78.5174 21.2032C81.9317 22.6001 83.7392 24.3461 83.7392 27.9081C83.7392 32.7972 80.0572 35.7306 74.4337 35.7306C71.8228 35.7306 68.7433 35.0321 67.2035 33.5654V27.978C69.8144 29.9336 72.3584 30.4923 74.4337 30.4923C76.7099 30.4923 77.8479 29.7241 77.8479 28.3272C77.8479 27.2795 77.2454 26.8605 75.5048 26.1621L71.6889 24.6255C68.6094 23.3683 66.668 21.5524 66.668 17.8507C66.668 13.3109 70.35 10.168 76.576 10.168C78.986 10.168 81.53 10.7966 83.0028 11.9839L81.7978 17.1523Z" fill="#8BBD3F"/>
<path d="M127.452 22.8786C127.452 30.2122 122.833 35.8695 114.933 35.8695C107.033 35.8695 102.414 30.2122 102.414 22.8786C102.414 15.615 107.033 9.95766 114.933 9.95766C122.833 9.88782 127.452 15.615 127.452 22.8786ZM108.439 22.8786C108.439 26.9295 110.648 30.4217 114.933 30.4217C119.217 30.4217 121.427 26.8597 121.427 22.8786C121.427 18.8976 119.217 15.3356 114.933 15.3356C110.648 15.3356 108.439 18.8277 108.439 22.8786Z" fill="#8BBD3F"/>
<path d="M141.247 16.8699C138.435 16.8699 136.494 18.4065 136.494 22.9463V35.0292H130.469V10.6539H136.159L136.226 15.962C137.23 12.7492 139.172 10.3047 142.519 10.3047C143.59 10.3047 144.661 10.7237 145.331 11.4222L144.193 17.6382C143.322 17.1493 142.251 16.8699 141.247 16.8699Z" fill="#8BBD3F"/>
<path d="M159.721 35.6598C150.549 35.6598 145.93 30.212 145.93 22.7388C145.93 15.8942 150.214 10.0273 157.779 10.0273C164.34 10.0273 168.223 15.6148 168.223 22.1801C168.223 23.088 168.156 24.2753 168.022 25.0436H152.156C152.892 28.4659 155.57 30.3517 160.39 30.3517C163.001 30.3517 165.612 29.5136 167.152 28.3961V33.8439C165.478 35.0312 162.264 35.6598 159.721 35.6598ZM157.511 15.2656C154.499 15.2656 152.557 17.3609 152.022 20.7133H162.331C161.997 17.4307 160.256 15.2656 157.511 15.2656Z" fill="#8BBD3F"/>
<path d="M20.2068 35.0326H14.5833L14.5164 30.9817C13.4452 33.7754 11.4368 35.4517 8.35732 35.4517C3.73805 35.4517 0.859375 32.0992 0.859375 28.188C0.859375 21.483 6.54978 20.6449 11.236 20.2259L14.3155 19.9465V19.3877C14.3155 16.9432 12.0394 15.6162 8.759 15.6162C6.282 15.6162 3.93889 16.3146 1.66273 17.5718L3.06859 11.8447C5.34476 10.6573 7.82176 10.2383 10.0979 10.2383C15.5205 10.2383 20.2068 12.8923 20.2068 19.1782V35.0326ZM10.2988 30.4928C12.441 30.4928 14.3155 28.6769 14.3155 25.6736V23.9974L11.0352 24.3466C8.22343 24.626 6.88451 25.4641 6.88451 27.4895C6.88451 29.1658 7.8887 30.4928 10.2988 30.4928Z" fill="#EE715F"/>
<path d="M37.2792 10.168C43.8399 10.168 47.9905 15.6856 47.9905 22.8794C47.9905 30.0733 43.8399 35.5909 37.2122 35.5909C33.731 35.5909 30.9862 33.8448 29.4465 31.1209V43.0641H23.4883V10.6569H29.3126L29.3795 14.8475C30.8523 12.0537 33.5971 10.168 37.2792 10.168ZM41.8984 22.8794C41.8984 18.8285 39.6892 15.5459 35.6055 15.5459C31.5218 15.5459 29.3795 18.8984 29.3795 22.8794C29.3795 26.9303 31.5218 30.2129 35.6055 30.2129C39.7562 30.2129 41.8984 26.9303 41.8984 22.8794Z" fill="#EE715F"/>
<path d="M58.3645 26.0948V20.4375H52.4062V27.4917C52.4062 32.3807 55.0841 35.3839 60.5067 35.3839C62.1134 35.3839 64.0549 34.9649 64.9921 34.1966V29.1679C64.1888 29.587 63.1176 29.8663 62.3143 29.8663C59.6364 29.8663 58.3645 28.7488 58.3645 26.0948Z" fill="#EE715F"/>
<path d="M62.8503 5.20886H58.4318V0.25H52.4067V5.20886H47.9883V10.6566H52.4067V15.7552H58.4318V10.6566H62.8503V5.20886Z" fill="#8BBD3F"/>
</svg>
