<svg width="24" height="24" fill="none" xmlns="http://www.w3.org/2000/svg"><path d="m21.283 8.277-5.95-.865-2.66-5.393a.753.753 0 0 0-1.345 0L8.666 7.412l-5.951.865a.749.749 0 0 0-.415 1.28l4.306 4.197-1.018 5.927a.749.749 0 0 0 1.088.79l5.322-2.798 5.323 2.798a.749.749 0 0 0 1.088-.79l-1.017-5.927 4.305-4.198a.748.748 0 0 0 .218-.429.747.747 0 0 0-.633-.85Zm-5.702 4.886.846 4.93-4.428-2.326-4.427 2.328.846-4.93-3.581-3.492 4.95-.72 2.212-4.483 2.213 4.484 4.95.72-3.581 3.49Z" fill="#E4E4E4"/></svg>